<?xml version="1.0" encoding="UTF-8"?>
<svg version="1.1" viewBox="0 0 640 640" xmlns="http://www.w3.org/2000/svg" xmlns:cc="http://creativecommons.org/ns#" xmlns:dc="http://purl.org/dc/elements/1.1/" xmlns:rdf="http://www.w3.org/1999/02/22-rdf-syntax-ns#">
 <g transform="matrix(1.0221 0 0 1.1892 -17.191 -121.52)">
  <path d="m310.92 106.29c-9.0995 6e-3 -15.433 0.0617-16.168 0.1875l-2.3906 0.41015v164.73l-3.6875 1.6348c-33.569 14.864-58.42 43.441-66.479 76.443l-1.5 6.1445-94.877 0.29102c-105.91 0.32664-96.241-0.10145-101.1 4.4883-4.7569 4.4932-4.3624-7.9955-4.3555 137.85l0.0059 131.25 1.5195 2.9258c1.8568 3.5769 5.0226 6.4151 8.4238 7.5508 2.2168 0.74019 31.01 0.85873 218.2 0.89453 196.07 0.0375 215.68-0.0431 216.03-0.88477 0.21417-0.50912 0.38867-31.203 0.38867-68.209v-67.283l5.2031 4.1816c14.093 11.329 33.392 18.754 54.137 20.83 2.117 0.21185 4.4991 0.60382 5.293 0.8711l1.4434 0.48632-8e-3 42.588c-5e-3 23.424-0.17986 43.17-0.38867 43.881l-0.38086 1.291-50.865 0.34375-2.9844 1.6016c-7.5905 4.0705-7.5337 13.572 0.10938 18.279l2.875 1.7715h127.66l2.8281-1.7559c4.1372-2.5681 5.3839-4.4006 5.6992-8.377 0.45147-5.6936-2.5747-9.6542-8.5273-11.158-1.6672-0.42125-11.05-0.64839-26.785-0.65039l-24.217-4e-3v-88.344l1.4434-0.27344c0.79388-0.15014 3.1759-0.44198 5.293-0.64843 20.501-1.9993 40.533-9.8637 54.357-21.34 11.316-9.3936 20.868-24.872 23.293-37.746 1.2438-6.602 0.90438-28.321-0.47266-30.246-0.53747-0.75124-1.1738-3.5677-1.4297-6.3281-1.2062-13.011-5.9463-33.893-11.025-48.572-6.778-19.59-18.158-40.846-27.865-52.049l-2.5664-2.9609h-108.28l-1.9414 2.2363c-4.2263 4.8677-10.758 14.949-16.152 24.934-4.4396 8.2173-5.7354 10.186-5.9766 9.0723-0.16933-0.78192-0.76372-4.6271-1.3223-8.543-4.9826-34.932-30.524-67.416-65.748-83.621l-5.8379-2.6855v-82.145c0-56.747-0.20648-82.261-0.67188-82.523-0.7034-0.39656-52.907-0.83574-80.205-0.81836z" fill="#f0e7da"/>
  <path d="m293.69 106.84-0.76758 1.3066c-0.58851 1.0031-0.70413 20.258-0.50195 82.627l0.26367 81.318-6.0957 2.8789c-12.637 5.9696-22.081 12.417-32.436 22.143-9.9556 9.3505-16.449 17.884-22.719 29.857-3.6532 6.9763-7.0799 16.137-8.7207 23.314-0.6254 2.7358-1.4123 5.3047-1.748 5.707-0.48348 0.57934-20.15 0.73047-94.537 0.73047h-93.926l-3.0254 1.4043c-3.5912 1.6676-5.2597 3.2363-7.2246 6.7891l-1.4551 2.6328 0.42188 131.31 0.42383 131.3 1.7637 3c1.7565 2.9899 7.1112 7.0026 10.102 7.5703 0.70567 0.13397 11.387 0.27088 23.736 0.30468l22.453 0.0625-3.0938-1.3828c-4.1056-1.8349-5.9075-3.4621-7.8574-7.0977-1.3472-2.5119-1.589-3.7061-1.4297-7.0566l0.19141-4.0312 152.36-0.29687v9.0254c0 4.9639 0.17646 9.442 0.39063 9.9512 0.35319 0.83958 11.689 0.92578 121.89 0.92578h121.5l0.01-68.031c6e-3 -40.055 0.25053-68.377 0.5957-68.875 0.46383-0.66876 1.6124 0.0431 5.498 3.4102 13.297 11.522 31.488 18.706 54.133 21.379 4.0209 0.47466 7.6144 1.1412 7.9863 1.4805 0.89656 0.81786 21.734 0.8358 22.629 0.0195 0.35972-0.32813 4.4736-1.1073 9.1426-1.7324 38.005-5.0882 62.76-22.027 73.76-50.471 3.4582-8.9421 4.1611-13.933 3.6445-25.91-0.24986-5.7936-0.753-10.863-1.1172-11.266-0.52434-0.57925-20.611-0.73047-96.51-0.73047-84.525 0-95.894-0.10433-96.219-0.87695-0.2027-0.48186-0.029-3.5769 0.38671-6.877 2.198-17.447 7.2318-37.916 13.143-53.451l3.4043-8.9473-0.57422-5.4492c-2.8184-26.786-15.148-50.868-35.457-69.246-9.5008-8.5979-21.808-16.634-33.258-21.715l-3.6895-1.6367v-164.65l-1.4434-0.35351c-0.79389-0.19408-22.723-0.35538-48.732-0.35938zm-153.62 279.14h50.496l2.7656 1.4785c1.6673 0.89133 3.4384 2.5275 4.4609 4.1191 3.4189 5.3218 0.94287 12.762-5.1426 15.449-2.6442 1.1677-3.677 1.1906-52.693 1.1543-31.526-0.0234-50.59-0.25236-51.602-0.61914-2.0493-0.74324-4.9867-3.2806-6.1504-5.3125-1.0813-1.8882-1.1987-8.2166-0.18555-10.016 1.0643-1.8897 3.852-4.4878 5.8242-5.4277 1.4484-0.69023 10.008-0.82617 52.227-0.82617zm0.27734 61.562c1.0062 0.15458 20.196 15.232 67.166 52.771l12.354 9.873v81.201h-75.912c-41.752 0-76.107-0.17409-76.342-0.38867-0.7163-0.65342-0.50612-84.992 0.21484-86.221 0.35284-0.60141 9.5148-8.1561 20.361-16.787 10.847-8.631 26.759-21.303 35.361-28.16 10.12-8.0667 16.048-12.404 16.797-12.289zm0.55078 41.732c-3.7832-0.17001-7.6354 1.0876-11.07 3.8457-5.5013 4.4174-8.6226 11.059-9.1914 19.559-0.89968 13.444 5.7094 25.082 15.65 27.562 5.954 1.4858 10.914-0.13864 16.039-5.2539 9.2481-9.2306 10.087-27.137 1.7891-38.139-3.603-4.7771-8.3527-7.3556-13.217-7.5742zm78.969 113.23v7.0273h-152.75l0.19336-3.3652 0.19141-3.3652 76.182-0.14844z" fill="#cfb6b0"/>
  <path d="m293.65 108.01-0.16406 82.066-0.16211 82.066-7.002 3.4219c-8.1655 3.9894-14.935 8.0444-21.225 12.713-6.2917 4.67-17.27 15.241-21.662 20.859-10.416 13.324-17.502 28.245-20.996 44.221l-0.73633 3.3652-92.494 6e-3c-50.872 4e-3 -93.581 0.17065-94.91 0.3711-4.2202 0.63627-8.7782 3.633-10.996 7.2305l-1.9844 3.2188-0.15625 75.199c-0.09492 45.747 0.07957 75.535 0.44336 76.055 0.52074 0.74413 0.74805 0.73553 1.7598-0.0606 11.304-8.8942 43.089-34.318 43.811-35.043 1.0655-1.0702 3.2888-2.8498 44.453-35.588 15.445-12.284 28.252-22.334 28.459-22.334 0.45838 0 12.624 9.6005 50.914 40.182l29.189 23.312v102.41l-83.672 0.14844c-94.427 0.16758-86.012-0.30419-86.012 4.8262 0 2.047 0.34448 3.0279 1.3516 3.8594 1.3094 1.0811 3.8783 1.1245 84.84 1.4082l83.492 0.29101 0.19336 3.752c0.13401 2.5955-0.0646 3.9076-0.64258 4.2598-0.46497 0.28335-37.423 0.45803-83.381 0.39453-93.954-0.12985-85.854-0.58116-85.854 4.7812 0 5.4448-8.6899 4.9159 86.145 5.248l83.539 0.29102 0.17578 10.096 0.17383 10.096h243.09l0.0156-69.156c8e-3 -38.036 0.13348-69.265 0.27735-69.396 0.14385-0.13123 2.7141 1.84 5.7109 4.3789 17.964 15.219 41.699 22.572 72.924 22.594 22.546 0.0155 44.627-4.6676 59.281-12.574 17.777-9.5915 29.912-23.575 35.725-41.168 1.0635-3.2186 2.279-6.7739 2.7012-7.9004 0.86236-2.301 0.79639-21.321-0.084-24.285l-0.52149-1.7559-12.465-0.36133c-6.8558-0.1986-50.324-0.39665-96.596-0.43945-66.656-0.0617-84.192-0.22902-84.428-0.80859-0.43142-1.0622 1.2031-13.398 3.1211-23.555 2.2534-11.933 5.9621-25.181 10.264-36.66l3.5859-9.5703-0.35547-5.5606c-0.48173-7.5176-2.5584-16.925-5.6035-25.385-10-27.78-31.377-50.461-60.377-64.059l-5.9668-2.7969-0.39062-30.104c-0.21424-16.557-0.43007-53.606-0.48047-82.332l-0.0918-52.23h-48.111zm-204.51 277.39h50.633c48.508 0 50.733 0.0466 53.014 1.1133 9.3626 4.3799 9.6199 16.241 0.45508 20.955l-2.5645 1.3203-50.361 0.01-50.359 8e-3 -2.8086-1.2676c-4.2589-1.923-6.4922-5.5055-6.4922-10.412 0-4.8587 1.3441-7.2969 5.418-9.8242zm51.131 104.19c-5.3683-0.0836-11.911 4.1257-15.221 9.791-8.3991 14.375-2.9026 35.727 10.342 40.172 5.485 1.841 11.568 0.15076 16.295-4.5273 5.1842-5.1305 7.4842-11.267 7.498-20.004 0.0113-7.1629-1.6376-12.591-5.3574-17.627-3.4402-4.6574-8.7777-7.7303-13.557-7.8047z" fill="#fdca53"/>
  <path d="m293.65 108.01-0.16406 82.066-0.16211 82.066-7.002 3.4219c-8.1655 3.9894-14.935 8.0444-21.225 12.713-6.2917 4.67-17.27 15.241-21.662 20.859-10.416 13.324-17.502 28.245-20.996 44.221l-0.73633 3.3652-92.494 6e-3c-50.872 4e-3 -93.581 0.17065-94.91 0.3711-4.2202 0.63627-8.7782 3.633-10.996 7.2305l-1.9844 3.2188-0.15625 75.199c-0.09492 45.747 0.07957 75.535 0.44336 76.055 0.52074 0.74413 0.74805 0.73553 1.7598-0.0606 11.304-8.8942 43.089-34.318 43.811-35.043 1.0655-1.0702 3.2888-2.8498 44.453-35.588 15.445-12.284 28.252-22.334 28.459-22.334 0.45838 0 12.624 9.6005 50.914 40.182l29.189 23.312v102.41l-83.672 0.14844c-94.427 0.16758-86.012-0.30419-86.012 4.8262 0 2.047 0.34448 3.0279 1.3516 3.8594 1.3094 1.0811 3.8783 1.1245 84.84 1.4082l83.492 0.29101 0.19336 3.752c0.13401 2.5955-0.0646 3.9076-0.64258 4.2598-0.46497 0.28335-37.423 0.45803-83.381 0.39453-93.954-0.12985-85.854-0.58116-85.854 4.7812 0 5.4448-8.6899 4.9159 86.145 5.248l83.539 0.29102 0.17578 10.096 0.17383 10.096h243.09l0.0156-69.156c8e-3 -38.036 0.13348-69.265 0.27735-69.396 0.14385-0.13123 2.7141 1.84 5.7109 4.3789 17.964 15.219 41.699 22.572 72.924 22.594 22.546 0.0155 44.627-4.6676 59.281-12.574 17.777-9.5915 29.912-23.575 35.725-41.168 1.0635-3.2186 2.279-6.7739 2.7012-7.9004 0.86236-2.301 0.79639-21.321-0.084-24.285l-0.52149-1.7559-12.465-0.36133c-6.8558-0.1986-50.324-0.39665-96.596-0.43945-66.656-0.0617-84.192-0.22902-84.428-0.80859-0.43142-1.0622 1.2031-13.398 3.1211-23.555 2.2534-11.933 5.9621-25.181 10.264-36.66l3.5859-9.5703-0.35547-5.5606c-0.48173-7.5176-2.5584-16.925-5.6035-25.385-10-27.78-31.377-50.461-60.377-64.059l-5.9668-2.7969-0.39062-30.104c-0.21424-16.557-0.43007-53.606-0.48047-82.332l-0.0918-52.23h-48.111zm49.938 244.12c30.183 0.33214 54.764 13.714 67.939 37.236l3.3691 6.0156-0.16211 89.373-0.16211 89.371-72.223 0.14844c-39.722 0.0818-72.416-0.0262-72.652-0.24219-0.23674-0.21594-0.42969-40.515-0.42969-89.553v-89.16l1.8848-3.791c4.554-9.1619 14.111-19.928 23.066-25.982 12.008-8.1179 26.355-12.531 43.26-13.309 2.0603-0.0947 4.0972-0.12957 6.1094-0.10742zm-254.44 33.268h50.633c48.508 0 50.733 0.0466 53.014 1.1133 9.3626 4.3799 9.6199 16.241 0.45508 20.955l-2.5645 1.3203-50.361 0.01-50.359 8e-3 -2.8086-1.2676c-4.2589-1.923-6.4922-5.5055-6.4922-10.412 0-4.8587 1.3441-7.2969 5.418-9.8242z" fill="#ef7682"/>
  <path d="m293.43 108.01 0.26368 82.367 0.26367 82.369-7.4375 3.5625c-17.392 8.3316-30.688 18.777-42.766 33.598-9.1976 11.286-16.636 26.917-20.379 42.83-1.0096 4.2916-1.1527 4.5203-3.0879 4.9082-1.116 0.22372-43.744 0.30544-94.729 0.18164-89.476-0.21726-92.778-0.18776-94.945 0.86523-3.1426 1.5269-5.6552 3.7785-7.2754 6.5176l-1.3848 2.3398-0.17188 74.867c-0.09724 42.252 0.07182 75.09 0.38867 75.379 0.52841 0.48203 40.424-30.708 44.689-34.938 1.0585-1.0496 5.389-4.6596 9.623-8.0234s16.792-13.351 27.906-22.193c37.016-29.449 35.23-28.1 36.432-27.514 0.60329 0.29466 7.0149 5.2484 14.248 11.008 7.2332 5.7594 24.699 19.646 38.812 30.859 14.113 11.214 26.024 20.8 26.467 21.303 0.63552 0.72133 0.76987 11.798 0.64063 52.443l-0.16407 51.529-84.223 0.29297c-93.203 0.32381-85.43-0.0556-85.449 4.1504-0.0064 1.3633 0.43722 2.4736 1.2617 3.1543 1.2113 1 5.2483 1.0473 84.199 0.95704 45.61-0.0522 83.303 0.12977 83.76 0.40625 0.59223 0.35838 0.77555 1.8332 0.64063 5.1348l-0.18946 4.6309-83.588 0.0781c-78.981 0.0751-83.655 0.13696-84.84 1.1152-1.6148 1.3331-1.7368 5.6126-0.19336 6.7812 0.88274 0.66836 15.121 0.85221 84.84 1.0957l83.781 0.29297v20.189h219.1l-0.18359-138.84c-0.2014-152.97 0.11623-140.69-4.0234-155.59-8.2384-29.647-31.153-55.863-61.566-70.434-3.1755-1.5213-6.1374-3.037-6.582-3.3691-0.63252-0.47291-0.77324-6.3322-0.64258-27.008l0.16797-26.404 22.453-0.58594 0.16406-55.154 0.16211-55.156h-48.221zm47.537 244.12c31.491-0.43836 57.401 13.219 70.674 37.404l3.248 5.9199-0.32422 178.67-72.309 0.15039c-71.346 0.14682-72.316 0.13254-72.982-1.0039-0.46689-0.79581-0.62369-28.422-0.50586-89.393l0.17188-88.242 2.0449-3.9512c4.981-9.6228 14.287-20.097 23.227-26.141 12.269-8.2945 26.355-12.59 43.691-13.326 1.0272-0.0436 2.0486-0.0718 3.0644-0.0859zm-252.18 32.678h51.131c48.997 0 51.231 0.0463 53.512 1.1133 4.8919 2.2885 7.1914 5.925 7.1914 11.373 0 3.2784-0.2713 4.1358-2.0859 6.6016-1.1467 1.5582-3.239 3.4264-4.6504 4.1523l-2.5664 1.3184-102.71 0.02-2.6074-1.541c-1.4341-0.84829-3.3885-2.6269-4.3418-3.9512-1.5967-2.2182-1.7162-2.7984-1.5293-7.3809 0.23379-5.7323 1.4786-7.8572 6.0332-10.299zm441.97 56.744c-42.009 0.0391-83.905 0.29343-84.195 0.72265-0.26103 0.38527-0.59412 5.5851-0.74024 11.557-0.31006 12.672 0.59077 17.679 4.9746 27.646 4.3344 9.8552 7.768 14.571 16.049 22.041 15.74 14.199 32.337 21.312 56.777 24.336 9.6165 1.1899 14.383 1.0711 23.334-0.58008 19.911-3.6728 33.712-9.979 46.406-21.209 10.483-9.2736 17.47-20.117 21.572-33.477 1.6101-5.243 1.7056-6.2542 1.6562-17.754-0.0423-9.8521-0.22767-12.294-0.96289-12.719-0.74172-0.42827-42.863-0.6035-84.871-0.56445z" fill="#fc6466"/>
  <path d="m293.43 108.01 0.42187 82.25 0.42188 82.252-1.7598 0.88085c-19.716 9.8747-24.412 12.939-35.762 23.322-10.341 9.4602-15.834 16.199-21.723 26.65-5.092 9.0371-8.1205 16.411-10.334 25.164-0.936 3.7014-2.1898 7.6312-2.7852 8.7324-0.99659 1.8437-1.0776 7.1299-1.0332 66.715 0.0265 35.591 0.12912 87.885 0.22852 116.21 0.0993 28.324 0.13434 53.671 0.0781 56.326-0.1008 4.7586-0.12288 9.5371-0.0879 19.02 0.01 2.6554 0.19126 9.1461 0.40235 14.424 0.3044 7.6102 0.20717 9.6972-0.46485 10.086h2e-3c-0.46604 0.26956 48.444 0.49305 108.69 0.49805l109.54 0.01v-136.91c0-148.71 0.14007-142.43-3.5156-156.14-5.3924-20.227-18.104-39.863-35.246-54.447-8.187-6.9651-17.502-12.775-29.883-18.639l-3.5274-1.6699v-53.84l22.453-0.58594 0.16406-55.154 0.16406-55.156h-48.225zm48.33 243.3c5.706-3.6e-4 11.464 0.3215 15.686 0.9668 24.753 3.7836 45.609 18.126 56.295 38.711l2.1113 4.0684v179.66l-73.506 0.14844c-40.428 0.0818-73.699-0.0282-73.936-0.24415-0.23671-0.21592-0.42969-40.615-0.42969-89.777v-89.387l3.2226-5.875c10.986-20.019 30.736-33.37 55.18-37.301 4.0158-0.64587 9.671-0.96839 15.377-0.96875zm-279.9 6.0644c-2.5643 4e-3 -5.3368 0.0177-8.1973 0.043-18.833 0.16624-21.016 0.28776-23.049 1.2754-3.1426 1.5269-5.6552 3.7785-7.2754 6.5176l-1.3848 2.3398-0.17383 74.604c-0.0948 41.031-0.02427 74.952 0.15625 75.381 0.19164 0.45556 0.6639 0.5923 1.1348 0.32813 1.6386-0.91937 41.284-32.59 42.986-34.34l1.7656-1.8125v-113.73l1.7871-3.1387c1.2284-2.1569 2.7469-3.7285 4.8516-5.0215 2.8798-1.7692 2.9709-1.9013 1.5332-2.2305-0.63078-0.14442-6.4419-0.22345-14.135-0.21094zm469.08 84.205c-78.361 0-84.049 0.066-84.438 0.99024-0.22929 0.54508-0.43664 6.273-0.46093 12.729-0.04 10.631 0.0998 12.206 1.4766 16.711 4.2193 13.807 11.115 24.517 21.428 33.279 15.217 12.929 31.392 19.543 55.316 22.615 7.5171 0.96525 13.966 0.70654 22.619-0.90625 19.647-3.6619 35.494-11 47.307-21.902 10.461-9.6551 17.898-22.153 21.156-35.557 0.87822-3.6132 1.0535-6.7212 0.87695-15.508-0.12141-6.044-0.45478-11.318-0.74023-11.721-0.41085-0.57908-18.028-0.73047-84.541-0.73047zm-473.35 151.07c-5.7054 4e-3 -6.4453 0.73249-6.4453 4.0059 0 1.7408 0.38549 2.5331 1.6895 3.4688 1.4319 1.0275 2.5834 1.2111 7.5371 1.2031 3.2162-5e-3 6.2243-0.2264 6.6836-0.49218 0.58-0.33558 0.7751-1.6279 0.64062-4.2324l-0.19336-3.752-7.1504-0.16406c-1.03-0.0237-1.9467-0.0376-2.7617-0.0371zm4.459 18.074c-0.77262 0.0129-1.645 0.0448-2.6328 0.0879-6.8978 0.30083-8.2715 1.1178-8.2715 4.9199 0 1.9378 0.32876 2.7201 1.4434 3.4356 1.1402 0.73189 2.8587 0.89343 8.1797 0.76562l6.7344-0.16211 0.18945-3.916c0.21152-4.3863-0.23425-5.2214-5.6426-5.1309z" fill="#ec5463"/>
  <path d="m293.64 163.31v-55.306h96.235l-0.3273 110.31-95.908 0.30006z" fill="#4b515b"/>
  <path d="m310.92 106.29c-9.0995 6e-3 -15.433 0.0617-16.168 0.1875l-2.3906 0.41015v164.73l-3.6875 1.6348c-33.569 14.864-58.42 43.441-66.479 76.443l-1.5 6.1445-94.877 0.29102c-105.91 0.32664-96.241-0.10145-101.1 4.4883-4.7569 4.4932-4.3624-7.9955-4.3555 137.85l0.0059 131.25 1.5195 2.9258c1.8568 3.5769 5.0226 6.4151 8.4238 7.5508 2.2168 0.74019 31.01 0.85873 218.2 0.89453 196.07 0.0375 215.68-0.0431 216.03-0.88477 0.21417-0.50912 0.38867-31.203 0.38867-68.209v-67.283l5.2031 4.1816c14.093 11.329 33.392 18.754 54.137 20.83 2.117 0.21185 4.4991 0.60382 5.293 0.8711l1.4434 0.48632-8e-3 42.588c-5e-3 23.424-0.17986 43.17-0.38867 43.881l-0.38086 1.291-50.865 0.34375-2.9844 1.6016c-7.5905 4.0705-7.5337 13.572 0.10938 18.279l2.875 1.7715h127.66l2.8281-1.7559c4.1372-2.5681 5.3839-4.4006 5.6992-8.377 0.45147-5.6936-2.5747-9.6542-8.5273-11.158-1.6672-0.42125-11.05-0.64839-26.785-0.65039l-24.217-4e-3v-88.344l1.4434-0.27344c0.79388-0.15014 3.1759-0.44198 5.293-0.64843 20.501-1.9993 40.533-9.8637 54.357-21.34 11.316-9.3936 20.868-24.872 23.293-37.746 1.2438-6.602 0.90438-28.321-0.47266-30.246-0.53747-0.75124-1.1738-3.5677-1.4297-6.3281-1.2062-13.011-5.9463-33.893-11.025-48.572-6.778-19.59-18.158-40.846-27.865-52.049l-2.5664-2.9609h-108.28l-1.9414 2.2363c-4.2263 4.8677-10.758 14.949-16.152 24.934-4.4396 8.2173-5.7354 10.186-5.9766 9.0723-0.16933-0.78192-0.76372-4.6271-1.3223-8.543-4.9826-34.932-30.524-67.416-65.748-83.621l-5.8379-2.6855v-82.145c0-56.747-0.20648-82.261-0.67188-82.523-0.7034-0.39656-52.907-0.83574-80.205-0.81836z" fill="#f0e7da"/>
  <path d="m293.69 106.84-0.76758 1.3066c-0.58851 1.0031-0.70413 20.258-0.50195 82.627l0.26367 81.318-6.0957 2.8789c-12.637 5.9696-22.081 12.417-32.436 22.143-9.9556 9.3505-16.449 17.884-22.719 29.857-3.6532 6.9763-7.0799 16.137-8.7207 23.314-0.6254 2.7358-1.4123 5.3047-1.748 5.707-0.48348 0.57934-20.15 0.73047-94.537 0.73047h-93.926l-3.0254 1.4043c-3.5912 1.6676-5.2597 3.2363-7.2246 6.7891l-1.4551 2.6328 0.42188 131.31 0.42383 131.3 1.7637 3c1.7565 2.9899 7.1112 7.0026 10.102 7.5703 0.70567 0.13397 11.387 0.27088 23.736 0.30468l22.453 0.0625-3.0938-1.3828c-4.1056-1.8349-5.9075-3.4621-7.8574-7.0977-1.3472-2.5119-1.589-3.7061-1.4297-7.0566l0.19141-4.0312 152.36-0.29687v9.0254c0 4.9639 0.17646 9.442 0.39063 9.9512 0.35319 0.83958 11.689 0.92578 121.89 0.92578h121.5l0.01-68.031c6e-3 -40.055 0.25053-68.377 0.5957-68.875 0.46383-0.66876 1.6124 0.0431 5.498 3.4102 13.297 11.522 31.488 18.706 54.133 21.379 4.0209 0.47466 7.6144 1.1412 7.9863 1.4805 0.89656 0.81786 21.734 0.83597 22.629 0.0195 0.35972-0.32812 4.4736-1.1073 9.1426-1.7324 38.005-5.0882 62.76-22.027 73.76-50.471 3.4582-8.9421 4.1611-13.933 3.6445-25.91-0.24986-5.7936-0.753-10.863-1.1172-11.266-0.52434-0.57925-20.611-0.73047-96.51-0.73047-84.525 0-95.894-0.10433-96.219-0.87695-0.2027-0.48186-0.029-3.5769 0.38671-6.877 2.198-17.447 7.2318-37.916 13.143-53.451l3.4043-8.9473-0.57422-5.4492c-2.8184-26.786-15.148-50.868-35.457-69.246-9.5008-8.5979-21.808-16.634-33.258-21.715l-3.6895-1.6367v-164.65l-1.4434-0.35351c-0.79389-0.19408-22.723-0.35538-48.732-0.35938zm-153.62 279.14h50.496l2.7656 1.4785c1.6673 0.89133 3.4384 2.5276 4.4609 4.1191 3.4189 5.3218 0.94287 12.762-5.1426 15.449-2.6442 1.1677-3.677 1.1906-52.693 1.1543-31.526-0.0234-50.59-0.25236-51.602-0.61914-2.0493-0.74324-4.9867-3.2806-6.1504-5.3125-1.0813-1.8882-1.1987-8.2166-0.18555-10.016 1.0643-1.8897 3.852-4.4878 5.8242-5.4277 1.4484-0.69023 10.008-0.82617 52.227-0.82617zm0.27734 61.562c1.0062 0.15458 20.196 15.232 67.166 52.771l12.354 9.873v81.201h-75.912c-41.752 0-76.107-0.17409-76.342-0.38867-0.7163-0.65342-0.50612-84.992 0.21484-86.221 0.35284-0.60141 9.5148-8.1561 20.361-16.787 10.847-8.631 26.759-21.303 35.361-28.16 10.12-8.0667 16.048-12.404 16.797-12.289zm0.55078 41.732c-3.7832-0.17001-7.6354 1.0876-11.07 3.8457-5.5013 4.4174-8.6226 11.059-9.1914 19.559-0.89968 13.444 5.7094 25.082 15.65 27.562 5.954 1.4858 10.914-0.13864 16.039-5.2539 9.2481-9.2306 10.087-27.137 1.7891-38.139-3.603-4.7771-8.3527-7.3556-13.217-7.5742zm78.969 113.23v7.0273h-152.75l0.19336-3.3652 0.19141-3.3652 76.182-0.14844z" fill="#cfb6b0"/>
  <path d="m293.65 108.01-0.16406 82.066-0.16211 82.066-7.002 3.4219c-8.1655 3.9894-14.935 8.0444-21.225 12.713-6.2917 4.67-17.27 15.241-21.662 20.859-10.416 13.324-17.502 28.245-20.996 44.221l-0.73633 3.3652-92.494 6e-3c-50.872 4e-3 -93.581 0.17065-94.91 0.3711-4.2202 0.63627-8.7782 3.633-10.996 7.2305l-1.9844 3.2188-0.15625 75.199c-0.09492 45.747 0.07957 75.535 0.44336 76.055 0.52074 0.74413 0.74805 0.73578 1.7598-0.0606 11.304-8.8942 43.089-34.318 43.811-35.043 1.0655-1.0702 3.2888-2.8498 44.453-35.588 15.445-12.284 28.252-22.334 28.459-22.334 0.45838 0 12.624 9.6005 50.914 40.182l29.189 23.312v102.41l-83.672 0.14844c-94.427 0.16758-86.012-0.30419-86.012 4.8262 0 2.047 0.34448 3.0279 1.3516 3.8594 1.3094 1.0811 3.8783 1.1245 84.84 1.4082l83.492 0.29101 0.19336 3.752c0.13401 2.5955-0.0646 3.9076-0.64258 4.2598-0.46497 0.28335-37.423 0.45803-83.381 0.39453-93.954-0.12985-85.854-0.58116-85.854 4.7812 0 5.4448-8.6899 4.9159 86.145 5.248l83.539 0.29102 0.17578 10.096 0.17383 10.096h243.09l0.0156-69.156c8e-3 -38.036 0.13348-69.265 0.27735-69.396 0.14385-0.13123 2.7141 1.84 5.7109 4.3789 17.964 15.219 41.699 22.572 72.924 22.594 22.546 0.0155 44.627-4.6676 59.281-12.574 17.777-9.5915 29.912-23.575 35.725-41.168 1.0635-3.2186 2.279-6.7739 2.7012-7.9004 0.86236-2.301 0.79649-21.321-0.084-24.285l-0.52149-1.7559-12.465-0.36133c-6.8558-0.1986-50.324-0.39665-96.596-0.43945-66.656-0.0617-84.192-0.22902-84.428-0.80859-0.43142-1.0622 1.2031-13.398 3.1211-23.555 2.2534-11.933 5.9621-25.181 10.264-36.66l3.5859-9.5703-0.35547-5.5606c-0.48173-7.5176-2.5584-16.925-5.6035-25.385-10-27.78-31.377-50.461-60.377-64.059l-5.9668-2.7969-0.39062-30.104c-0.21424-16.557-0.43007-53.606-0.48047-82.332l-0.0918-52.23h-48.111zm-204.51 277.39h50.633c48.508 0 50.733 0.0466 53.014 1.1133 9.3626 4.3799 9.6199 16.241 0.45508 20.955l-2.5645 1.3203-50.361 0.01-50.359 8e-3 -2.8086-1.2676c-4.2589-1.923-6.4922-5.5055-6.4922-10.412 0-4.8587 1.3441-7.2969 5.418-9.8242zm51.131 104.19c-5.3683-0.0836-11.911 4.1257-15.221 9.791-8.3991 14.375-2.9026 35.727 10.342 40.172 5.485 1.841 11.568 0.15076 16.295-4.5273 5.1842-5.1305 7.4842-11.267 7.498-20.004 0.0113-7.1629-1.6376-12.591-5.3574-17.627-3.4402-4.6574-8.7777-7.7303-13.557-7.8047z" fill="#fdca53"/>
  <path d="m293.65 108.01-0.16406 82.066-0.16211 82.066-7.002 3.4219c-8.1655 3.9894-14.935 8.0444-21.225 12.713-6.2917 4.67-17.27 15.241-21.662 20.859-10.416 13.324-17.502 28.245-20.996 44.221l-0.73633 3.3652-92.494 6e-3c-50.872 4e-3 -93.581 0.17065-94.91 0.3711-4.2202 0.63627-8.7782 3.633-10.996 7.2305l-1.9844 3.2188-0.15625 75.199c-0.09492 45.747 0.07957 75.535 0.44336 76.055 0.52074 0.74413 0.74805 0.73578 1.7598-0.0606 11.304-8.8942 43.089-34.318 43.811-35.043 1.0655-1.0702 3.2888-2.8498 44.453-35.588 15.445-12.284 28.252-22.334 28.459-22.334 0.45838 0 12.624 9.6005 50.914 40.182l29.189 23.312v102.41l-83.672 0.14844c-94.427 0.16758-86.012-0.30419-86.012 4.8262 0 2.047 0.34448 3.0279 1.3516 3.8594 1.3094 1.0811 3.8783 1.1245 84.84 1.4082l83.492 0.29101 0.19336 3.752c0.13401 2.5955-0.0646 3.9076-0.64258 4.2598-0.46497 0.28335-37.423 0.45803-83.381 0.39453-93.954-0.12985-85.854-0.58116-85.854 4.7812 0 5.4448-8.6899 4.9159 86.145 5.248l83.539 0.29102 0.17578 10.096 0.17383 10.096h243.09l0.0156-69.156c8e-3 -38.036 0.13348-69.265 0.27735-69.396 0.14385-0.13123 2.7141 1.84 5.7109 4.3789 17.964 15.219 41.699 22.572 72.924 22.594 22.546 0.0155 44.627-4.6676 59.281-12.574 17.777-9.5915 29.912-23.575 35.725-41.168 1.0635-3.2186 2.279-6.7739 2.7012-7.9004 0.86236-2.301 0.79649-21.321-0.084-24.285l-0.52149-1.7559-12.465-0.36133c-6.8558-0.1986-50.324-0.39665-96.596-0.43945-66.656-0.0617-84.192-0.22902-84.428-0.80859-0.43142-1.0622 1.2031-13.398 3.1211-23.555 2.2534-11.933 5.9621-25.181 10.264-36.66l3.5859-9.5703-0.35547-5.5606c-0.48173-7.5176-2.5584-16.925-5.6035-25.385-10-27.78-31.377-50.461-60.377-64.059l-5.9668-2.7969-0.39062-30.104c-0.21424-16.557-0.43007-53.606-0.48047-82.332l-0.0918-52.23h-48.111zm49.938 244.12c30.183 0.33214 54.764 13.714 67.939 37.236l3.3691 6.0156-0.16211 89.373-0.16211 89.371-72.223 0.14844c-39.722 0.0818-72.416-0.0262-72.652-0.24219-0.23674-0.21594-0.42969-40.515-0.42969-89.553v-89.16l1.8848-3.791c4.554-9.1619 14.111-19.928 23.066-25.982 12.008-8.1179 26.355-12.531 43.26-13.309 2.0603-0.0947 4.0972-0.12957 6.1094-0.10742zm-254.44 33.268h50.633c48.508 0 50.733 0.0466 53.014 1.1133 9.3626 4.3799 9.6199 16.241 0.45508 20.955l-2.5645 1.3203-50.361 0.01-50.359 8e-3 -2.8086-1.2676c-4.2589-1.923-6.4922-5.5055-6.4922-10.412 0-4.8587 1.3441-7.2969 5.418-9.8242z" fill="#ef7682"/>
  <path d="m293.43 108.01 0.26368 82.367 0.26367 82.369-7.4375 3.5625c-17.392 8.3316-30.688 18.777-42.766 33.598-9.1976 11.286-16.636 26.917-20.379 42.83-1.0096 4.2916-1.1527 4.5203-3.0879 4.9082-1.116 0.22372-43.744 0.30544-94.729 0.18164-89.476-0.21726-92.778-0.18776-94.945 0.86523-3.1426 1.5269-5.6552 3.7785-7.2754 6.5176l-1.3848 2.3398-0.17188 74.867c-0.09724 42.252 0.07182 75.09 0.38867 75.379 0.52841 0.48203 40.424-30.708 44.689-34.938 1.0585-1.0496 5.389-4.6596 9.623-8.0234s16.792-13.351 27.906-22.193c37.016-29.449 35.23-28.1 36.432-27.514 0.60329 0.29466 7.0149 5.2484 14.248 11.008 7.2332 5.7594 24.699 19.646 38.812 30.859 14.113 11.214 26.024 20.8 26.467 21.303 0.63552 0.72133 0.76987 11.798 0.64063 52.443l-0.16407 51.529-84.223 0.29297c-93.203 0.32381-85.43-0.0556-85.449 4.1504-0.0064 1.3633 0.43722 2.4736 1.2617 3.1543 1.2113 1 5.2483 1.0473 84.199 0.95704 45.61-0.0522 83.303 0.12977 83.76 0.40625 0.59223 0.35838 0.77555 1.8332 0.64063 5.1348l-0.18946 4.6309-83.588 0.0781c-78.981 0.0751-83.655 0.13696-84.84 1.1152-1.6148 1.3331-1.7368 5.6126-0.19336 6.7812 0.88274 0.66836 15.121 0.85221 84.84 1.0957l83.781 0.29297v20.189h219.1l-0.18359-138.84c-0.2014-152.97 0.11623-140.69-4.0234-155.59-8.2384-29.647-31.153-55.863-61.566-70.434-3.1755-1.5213-6.1374-3.037-6.582-3.3691-0.63252-0.47291-0.77324-6.3322-0.64258-27.008l0.16797-26.404 22.453-0.58594 0.16406-55.154 0.16211-55.156h-48.221zm47.537 244.12c31.491-0.43836 57.401 13.219 70.674 37.404l3.248 5.9199-0.32422 178.67-72.309 0.15039c-71.346 0.14682-72.316 0.13254-72.982-1.0039-0.46689-0.79581-0.62369-28.422-0.50586-89.393l0.17188-88.242 2.0449-3.9512c4.981-9.6228 14.287-20.097 23.227-26.141 12.269-8.2945 26.355-12.59 43.691-13.326 1.0272-0.0436 2.0486-0.0718 3.0644-0.0859zm-252.18 32.678h51.131c48.997 0 51.231 0.0463 53.512 1.1133 4.8919 2.2885 7.1914 5.925 7.1914 11.373 0 3.2784-0.2713 4.1358-2.0859 6.6016-1.1467 1.5582-3.239 3.4264-4.6504 4.1523l-2.5664 1.3184-102.71 0.02-2.6074-1.541c-1.4341-0.84829-3.3885-2.6269-4.3418-3.9512-1.5967-2.2182-1.7162-2.7984-1.5293-7.3809 0.23379-5.7323 1.4786-7.8572 6.0332-10.299zm441.97 56.744c-42.009 0.0391-83.905 0.29343-84.195 0.72265-0.26103 0.38527-0.59412 5.5851-0.74024 11.557-0.31006 12.672 0.59077 17.679 4.9746 27.646 4.3344 9.8552 7.768 14.571 16.049 22.041 15.74 14.199 32.337 21.312 56.777 24.336 9.6165 1.1899 14.383 1.0711 23.334-0.58008 19.911-3.6728 33.712-9.979 46.406-21.209 10.483-9.2736 17.47-20.117 21.572-33.477 1.6101-5.243 1.7056-6.2542 1.6562-17.754-0.0423-9.8521-0.22767-12.294-0.96289-12.719-0.74172-0.42827-42.863-0.6035-84.871-0.56445z" fill="#fc6466"/>
  <path d="m293.43 108.01 0.42187 82.25 0.42188 82.252-1.7598 0.88085c-19.716 9.8747-24.412 12.939-35.762 23.322-10.341 9.4602-15.834 16.199-21.723 26.65-5.092 9.0371-8.1205 16.411-10.334 25.164-0.936 3.7014-2.1898 7.6312-2.7852 8.7324-0.99659 1.8437-1.0776 7.1299-1.0332 66.715 0.0265 35.591 0.12912 87.885 0.22852 116.21 0.0993 28.324 0.13444 53.671 0.0781 56.326-0.1008 4.7586-0.12283 9.5371-0.0879 19.02 0.01 2.6554 0.19126 9.1461 0.40235 14.424 0.3044 7.6102 0.20717 9.6972-0.46485 10.086h2e-3c-0.46604 0.26956 48.444 0.49305 108.69 0.49805l109.54 0.01v-136.91c0-148.71 0.14007-142.43-3.5156-156.14-5.3924-20.227-18.104-39.863-35.246-54.447-8.187-6.9651-17.502-12.775-29.883-18.639l-3.5274-1.6699v-53.84l22.453-0.58594 0.16406-55.154 0.16406-55.156h-48.225zm48.33 243.3c5.706-3.6e-4 11.464 0.3215 15.686 0.9668 24.753 3.7836 45.609 18.126 56.295 38.711l2.1113 4.0684v179.66l-73.506 0.14844c-40.428 0.0818-73.699-0.0282-73.936-0.24415-0.23671-0.21592-0.42969-40.615-0.42969-89.777v-89.387l3.2226-5.875c10.986-20.019 30.736-33.37 55.18-37.301 4.0158-0.64587 9.671-0.96839 15.377-0.96875zm-279.9 6.0644c-2.5643 4e-3 -5.3368 0.0177-8.1973 0.043-18.833 0.16624-21.016 0.28776-23.049 1.2754-3.1426 1.5269-5.6552 3.7785-7.2754 6.5176l-1.3848 2.3398-0.17383 74.604c-0.0948 41.031-0.02427 74.952 0.15625 75.381 0.19164 0.45556 0.6639 0.5923 1.1348 0.32813 1.6386-0.91937 41.284-32.59 42.986-34.34l1.7656-1.8125v-113.73l1.7871-3.1387c1.2284-2.1569 2.7469-3.7285 4.8516-5.0215 2.8798-1.7692 2.9709-1.9013 1.5332-2.2305-0.63078-0.14442-6.4419-0.22345-14.135-0.21094zm469.08 84.205c-78.361 0-84.049 0.066-84.438 0.99024-0.22929 0.54508-0.43664 6.273-0.46093 12.729-0.04 10.631 0.0998 12.206 1.4766 16.711 4.2193 13.807 11.115 24.517 21.428 33.279 15.217 12.929 31.392 19.543 55.316 22.615 7.5171 0.96525 13.966 0.70654 22.619-0.90625 19.647-3.6619 35.494-11 47.307-21.902 10.461-9.6551 17.898-22.153 21.156-35.557 0.87822-3.6132 1.0535-6.7212 0.87695-15.508-0.12141-6.044-0.45478-11.318-0.74023-11.721-0.41085-0.57908-18.028-0.73047-84.541-0.73047zm-473.35 151.07c-5.7054 4e-3 -6.4453 0.73249-6.4453 4.0059 0 1.7408 0.38549 2.5331 1.6895 3.4688 1.4319 1.0275 2.5834 1.2112 7.5371 1.2031 3.2162-5e-3 6.2243-0.2264 6.6836-0.49218 0.58-0.33558 0.7751-1.6279 0.64062-4.2324l-0.19336-3.752-7.1504-0.16406c-1.03-0.0237-1.9467-0.0376-2.7617-0.0371zm4.459 18.074c-0.77262 0.0129-1.645 0.0448-2.6328 0.0879-6.8978 0.30083-8.2715 1.1178-8.2715 4.9199 0 1.9378 0.32876 2.7201 1.4434 3.4356 1.1402 0.73189 2.8587 0.89343 8.1797 0.76562l6.7344-0.16211 0.18945-3.916c0.21152-4.3863-0.23425-5.2214-5.6426-5.1309z" fill="#ec5463"/>
  <path d="m293.64 108.01v110.61l95.908-0.30078 0.16406-55.154 0.16211-55.156h-48.117z" fill="#4b515b"/>
 </g>
</svg>
