<?xml version="1.0" encoding="iso-8859-1"?>
<!-- Generator: Adobe Illustrator 19.0.0, SVG Export Plug-In . SVG Version: 6.00 Build 0)  -->
<svg version="1.1" id="Layer_1" xmlns="http://www.w3.org/2000/svg" xmlns:xlink="http://www.w3.org/1999/xlink" x="0px" y="0px"
	 viewBox="0 0 512 512" style="enable-background:new 0 0 512 512;" xml:space="preserve">
<path style="fill:#E23D52;" d="M231.528,321.025h-0.012v166.132c0,9.908-8.032,17.941-17.941,17.941H70.167
	c-9.908,0-17.941-8.032-17.941-17.941V222.749c0-9.801,2.339-19.297,6.643-27.8s10.584-16.011,18.479-21.8
	c15.8-11.59,25.133-30.01,25.133-49.6V41.27c0-4.062,3.292-7.354,7.354-7.354h64.072c4.062,0,7.354,3.292,7.354,7.354v82.279
	c0,9.801,2.327,19.297,6.643,27.8c4.304,8.503,10.584,16.011,18.479,21.8c10.865,7.976,18.677,19.169,22.478,31.764
	c-3.848,16.21-5.988,34.15-5.988,53.027C222.873,280.816,226.007,302.312,231.528,321.025z"/>
<g>
	<path style="fill:#F2414F;" d="M217.152,504.737c8.197-1.662,14.364-8.902,14.364-17.58v-2.923
		C231.516,493.666,225.525,501.68,217.152,504.737z"/>
	<path style="fill:#F2414F;" d="M228.861,204.914c-3.801-12.596-11.613-23.788-22.478-31.764
		c-7.894-5.789-14.175-13.298-18.479-21.8c-4.316-8.503-6.643-17.999-6.643-27.8V41.27c0-4.062-3.292-7.354-7.354-7.354h-45.392
		v36.875h52.746v21.847h-52.746v30.911c0,19.59-8.081,38.01-21.777,49.6c-6.842,5.789-12.28,13.298-16.011,21.8
		c-3.731,8.503-5.754,17.999-5.754,27.8v246.012c0,8.545,6.927,15.472,15.472,15.472h131.071V321.025h0.012
		C231.528,296.792,225.013,221.123,228.861,204.914z"/>
</g>
<polygon style="fill:#F95428;" points="187.015,248.806 187.015,433.896 95.464,433.896 52.227,433.896 52.227,402.108 
	95.464,402.108 155.227,402.108 155.227,280.594 52.227,280.594 52.227,248.806 "/>
<g>
	<path style="fill:#F7B239;" d="M174.033,10.228v23.689h-64.324V10.228C109.709,4.579,114.288,0,119.937,0h43.869
		C169.455,0,174.033,4.579,174.033,10.228z"/>
	<polygon style="fill:#F7B239;" points="155.227,280.594 155.227,402.108 95.464,402.108 52.227,402.108 52.227,280.594 	"/>
</g>
<g>
	<rect x="285.927" y="372.508" style="fill:#E6E6E6;" width="14.034" height="132.59"/>
	<rect x="382.694" y="372.508" style="fill:#E6E6E6;" width="14.034" height="132.59"/>
</g>
<path style="fill:#F2F2F2;" d="M453.446,203.499h-96.767h-0.012h-30.7H229.2c-0.117,0.468-0.234,0.947-0.339,1.415
	c-3.848,16.21-5.988,34.15-5.988,53.027h140.133c0,5.906-0.211,11.73-0.62,17.426h96.767c0.409-5.696,0.62-11.52,0.62-17.426
	C459.773,238.514,457.504,220.082,453.446,203.499z"/>
<g>
	<path style="fill:#E23D52;" d="M459.154,275.366c-4.561,64.079-33.916,113.515-69.447,113.515
		c-18.759,0-35.811-13.789-48.384-36.232c4.854-8.666,9.04-18.619,12.397-29.554c4.433-14.409,7.438-30.548,8.666-47.729H459.154
		L459.154,275.366z"/>
	<path style="fill:#E23D52;" d="M363.006,257.94c0,5.906-0.211,11.73-0.62,17.426c-2.152,30.232-9.824,57.214-21.063,77.283
		c-12.572,22.443-29.624,36.232-48.384,36.232c-26.455,0-49.495-27.402-61.412-67.856c-5.52-18.712-8.655-40.208-8.655-63.085
		L363.006,257.94L363.006,257.94z"/>
</g>
<g>
	<path style="fill:#F2414F;" d="M359.077,257.94c-3.684,19.718-9.836,37.296-17.753,51.436
		c-12.572,22.443-29.624,36.232-48.384,36.232c-26.455,0-49.495-27.402-61.412-67.856c-1.86-6.304-3.45-12.923-4.737-19.812H359.077
		z"/>
	<path style="fill:#F2414F;" d="M455.107,275.366c-3.555,12.701-8.21,24.186-13.707,34.01
		c-12.572,22.443-29.624,36.232-48.384,36.232c-14.561,0-28.092-8.304-39.296-22.513c4.433-14.409,7.438-30.548,8.666-47.729
		H455.107L455.107,275.366z"/>
</g>
<g>
	<path style="fill:#CCCCCC;" d="M350.731,512c11.958-9.466,25.468-14.199,38.976-14.199s27.017,4.733,38.976,14.199H350.731z"/>
	<path style="fill:#CCCCCC;" d="M253.964,512c11.958-9.466,25.468-14.199,38.976-14.199c13.508,0,27.017,4.733,38.976,14.199
		H253.964z"/>
</g>
<g>
</g>
<g>
</g>
<g>
</g>
<g>
</g>
<g>
</g>
<g>
</g>
<g>
</g>
<g>
</g>
<g>
</g>
<g>
</g>
<g>
</g>
<g>
</g>
<g>
</g>
<g>
</g>
<g>
</g>
</svg>
