<?xml version="1.0" encoding="iso-8859-1"?>
<!-- Generator: Adobe Illustrator 19.0.0, SVG Export Plug-In . SVG Version: 6.00 Build 0)  -->
<svg version="1.1" id="Layer_1" xmlns="http://www.w3.org/2000/svg" xmlns:xlink="http://www.w3.org/1999/xlink" x="0px" y="0px"
	 viewBox="0 0 512 512" style="enable-background:new 0 0 512 512;" xml:space="preserve">
<g>
	<path style="fill:#FF6464;" d="M242.735,0.485C149.922,7.261,77.61,87.866,79.488,180.908
		c2.827,140.064,140.894,265.47,170.824,291.037c3.304,2.822,8.105,2.788,11.407-0.034
		c30.323-25.909,170.828-153.609,170.828-295.359C432.547,74.66,346.234-7.072,242.735,0.485z M255.996,300.138
		c-68.255,0-123.586-55.331-123.586-123.586S187.741,52.965,255.996,52.965s123.586,55.331,123.586,123.586
		S324.25,300.138,255.996,300.138z"/>
	<path style="fill:#FF6464;" d="M255.996,256c-4.879,0-8.871-3.996-8.871-8.871s3.991-8.871,8.871-8.871
		c4.879,0,8.871,3.996,8.871,8.871S260.875,256,255.996,256z M264.78,247.129h0.086H264.78z M255.996,247.129h0.086H255.996z"/>
	<path style="fill:#FF6464;" d="M255.996,220.689c-4.879,0-8.828-3.953-8.828-8.828v-2.638c0-11.742,7.629-21.918,18.991-25.327
		c14.802-4.436,25.146-18.345,25.146-33.823c0-19.143-16.172-35.315-35.31-35.315c-19.474,0-35.31,15.84-35.31,35.31
		c0,4.875-3.948,8.828-8.828,8.828c-4.879,0-8.828-3.953-8.828-8.828c0-29.207,23.758-52.966,52.966-52.966
		c28.707,0,52.965,24.258,52.965,52.97c0,23.211-15.518,44.077-37.732,50.737c-3.828,1.146-6.405,4.53-6.405,8.414v2.638
		C264.823,216.737,260.875,220.689,255.996,220.689z"/>
</g>
<path style="fill:#D7DEED;" d="M317.789,512H194.203c-4.879,0-8.828-3.953-8.828-8.828s3.948-8.828,8.828-8.828h123.586
	c4.879,0,8.828,3.953,8.828,8.828S322.668,512,317.789,512z"/>
<path style="fill:#D2555A;" d="M252.587,471.944c-14.898-21.212-74.415-111.166-95.243-221.175
	c-15.585-20.682-24.935-46.326-24.935-74.217c0-30.606,11.187-58.559,29.614-80.145c16.463-53.024,48.404-91.345,86.018-95.922
	c1.375-0.168,2.987-0.313,4.738-0.446c-3.329,0.06-6.676,0.201-10.045,0.446C149.922,7.261,77.61,87.866,79.488,180.908
	c2.827,140.064,140.894,265.47,170.824,291.037c1.647,1.407,3.668,2.101,5.688,2.097
	C254.787,474.045,253.576,473.351,252.587,471.944z"/>
<g>
</g>
<g>
</g>
<g>
</g>
<g>
</g>
<g>
</g>
<g>
</g>
<g>
</g>
<g>
</g>
<g>
</g>
<g>
</g>
<g>
</g>
<g>
</g>
<g>
</g>
<g>
</g>
<g>
</g>
</svg>
