<?xml version="1.0" encoding="utf-8"?>
<svg id="master-artboard" viewBox="0 0 1400 865" version="1.1" xmlns="http://www.w3.org/2000/svg" x="0px" y="0px" style="enable-background:new 0 0 1400 980;" width="1400px" height="865px"><rect id="ee-background" x="0" y="0" width="1400" height="865" style="fill: white; fill-opacity: 0; pointer-events: none;"/>

<path d="M 0 0 H 1400 V 980 H 0 V 0 Z" class="st0" style="fill: rgb(150, 216, 232);" transform="matrix(1.0000000384024599, 0, 0, 1.0000000384024599, -0.000009834793489593707, 0)"/>
<g transform="matrix(0.8684340715408325, 0, 0, 0.8684340715408325, 81.46824318633571, -30.562084416239713)">
	<g>
		<g>
			<g>
				<path d="M521.9,530.2c-8.3,19.8-10.7,40.7-7,61.9c1.7,9.5,16.2,5.6,14.5-3.9c-3-16.9-1.2-34.7,5.5-50.6c1.6-3.8,1.1-8-2.7-10.2&#10;&#9;&#9;&#9;&#9;&#9;C528.9,525.6,523.5,526.5,521.9,530.2L521.9,530.2z"/>
			</g>
		</g>
		<g>
			<g>
				<path d="M 651.0999755859375 421.1000061035156 L 724.5999755859375 456.8999938964844 L 643.5999755859375 472.79998779296875 Z"/>
			</g>
			<g>
				<path class="st1" d="M623.7,261.7c-7.4-16.1-27.1-27.7-45.3-30.3c-18.2-2.5-34.8,2.5-48.9,9.8c-20.2,10.4-36.7,25.4-47.9,43.8&#10;&#9;&#9;&#9;&#9;&#9;c-9.7-16.1-25.9-31.3-44.7-35.9c-18.8-4.6-38.4,5.3-36.8,22c0.8,9,7.1,18,14,25.9c13.6,15.9,30.2,29.9,48.5,41.1l110.2,22.6&#10;&#9;&#9;&#9;&#9;&#9;c19.3-15.7,35-34.8,46.2-56.4C625.6,291.8,630.6,276.8,623.7,261.7z" style="fill: rgb(57, 156, 196);"/>
			</g>
			<g>
				<path class="st2" d="M662.1,259.2c-3.1-16.8-19.2-29-36.1-31.7c-16.8-2.7-34.1,2.4-49.4,9.8c-21.9,10.7-41.5,26.2-56.8,45.2&#10;&#9;&#9;&#9;&#9;&#9;c-5.4-16.8-17.2-32.6-34.2-37.5c-16.9-4.9-38.2,5.2-40.8,22.7c-1.4,9.4,2.5,18.7,7.1,27c9.2,16.6,21.7,31.2,36.6,43l100.4,24.2&#10;&#9;&#9;&#9;&#9;&#9;c22.4-16.2,42.1-35.9,58.3-58.3C656.6,290.4,665.1,274.9,662.1,259.2z" style="fill: rgb(69, 190, 238);"/>
			</g>
			<g>
				<path class="st3" d="M670.6,439.9c0,60.5-61.7,109.6-163.7,109.6s-163.7-49.1-163.7-109.6c0-60.5,61.7-109.6,163.7-109.6&#10;&#9;&#9;&#9;&#9;&#9;S670.6,379.4,670.6,439.9z" style="fill: rgb(255, 222, 23);"/>
			</g>
			<g>
				<path d="M500.9,331.3c-19.2,0.4-37,2.5-53.1,6.1c29.1,52.7,20.2,117.3,10.6,176.6c-1.9,9.9-5.1,20.8-10.3,30.3&#10;&#9;&#9;&#9;&#9;&#9;c15.7,3.5,32.9,5.6,51.5,6c4.3-9.6,7.9-19.5,9.8-30.3C520.2,456.9,525.3,389.8,500.9,331.3z"/>
			</g>
			<g>
				<path d="M620,357.8c-15.8-9.7-35.1-17.3-57.4-22c20.5,67.9,15.5,144.2-10.1,210.2c20.7-3.4,39-9.2,54.7-16.9&#10;&#9;&#9;&#9;&#9;&#9;C626,474.3,630.7,414.6,620,357.8z"/>
			</g>
			<g>
				<path d="M394.6,396.4c-2.3-1.8-5.3-2.9-8.5-2.9c-7.6,0-13.8,6.2-13.8,13.8c0,7.6,6.2,13.8,13.8,13.8c7.6,0,13.8-6.2,13.8-13.8&#10;&#9;&#9;&#9;&#9;&#9;h-13.8L394.6,396.4z"/>
			</g>
			<g>
				<path d="M442.5,396.4c-2.3-1.8-5.3-2.9-8.5-2.9c-7.6,0-13.8,6.2-13.8,13.8c0,7.6,6.2,13.8,13.8,13.8c7.6,0,13.8-6.2,13.8-13.8&#10;&#9;&#9;&#9;&#9;&#9;H434L442.5,396.4z"/>
			</g>
			<g>
				<g>
					<path d="M371.7,462.6c8.5,11.6,21.5,18.5,36.1,17.7c14.4-0.8,28.1-7.7,36.3-19.6c5.5-8-7.5-15.4-13-7.5&#10;&#9;&#9;&#9;&#9;&#9;&#9;c-10.2,14.8-35.6,16.7-46.5,1.8c-2.4-3.3-6.5-4.9-10.3-2.7C371.2,454.2,369.3,459.3,371.7,462.6L371.7,462.6z"/>
				</g>
			</g>
			<g>
				<path d="M670,242c-0.1,0-0.2,0-0.4,0c-1.1-0.2-1.8-1.2-1.6-2.3c2-11-5.7-23-16.5-25.6c-1.1-0.3-1.7-1.3-1.5-2.4&#10;&#9;&#9;&#9;&#9;&#9;c0.3-1.1,1.3-1.7,2.4-1.5c12.8,3.1,22,17.2,19.5,30.2C671.8,241.3,671,242,670,242z"/>
			</g>
			<g>
				<path d="M681,233c-0.2,0-0.4,0-0.6-0.1c-1-0.4-1.6-1.5-1.2-2.5c1.9-5.4,1.3-11.8-1.6-17.5c-2.9-5.7-7.7-9.9-13.2-11.5&#10;&#9;&#9;&#9;&#9;&#9;c-1.1-0.3-1.7-1.4-1.3-2.5c0.3-1.1,1.4-1.7,2.5-1.3c6.5,2,12.2,6.9,15.6,13.5c3.4,6.6,4.1,14.1,1.8,20.6&#10;&#9;&#9;&#9;&#9;&#9;C682.6,232.5,681.9,233,681,233z"/>
			</g>
			<g>
				<path d="M449.3,225.3c-0.5,0-1-0.2-1.4-0.5c-0.8-0.8-0.9-2-0.1-2.8c7.6-8.2,19.9-11.6,30.6-8.6c1.1,0.3,1.7,1.4,1.4,2.5&#10;&#9;&#9;&#9;&#9;&#9;c-0.3,1.1-1.4,1.7-2.5,1.4c-9.3-2.6-20,0.4-26.6,7.5C450.4,225.1,449.8,225.3,449.3,225.3z"/>
			</g>
			<g>
				<path d="M441,210c-0.6,0-1.2-0.3-1.6-0.9c-0.6-0.9-0.4-2.2,0.5-2.8c9.7-6.8,21.5-10.1,33.2-9.5c1.1,0.1,1.9,1,1.9,2.1&#10;&#9;&#9;&#9;&#9;&#9;c-0.1,1.1-1,2-2.1,1.9c-10.9-0.6-21.8,2.5-30.7,8.8C441.8,209.9,441.4,210,441,210z"/>
			</g>
			<g>
				<path d="M385.7,272C385.7,272,385.7,272,385.7,272c-1.1,0-2-0.9-2-2c0-12,5.3-24.1,14-32.3c0.8-0.8,2.1-0.7,2.8,0.1&#10;&#9;&#9;&#9;&#9;&#9;c0.8,0.8,0.7,2.1-0.1,2.8c-8,7.5-12.7,18.5-12.8,29.4C387.7,271.1,386.8,272,385.7,272z"/>
			</g>
			<g>
				<path d="M368.8,259.9c-0.2,0-0.5,0-0.7-0.1c-1-0.4-1.6-1.5-1.2-2.6c4.3-11.7,11.5-22.4,20.8-30.7c0.8-0.7,2.1-0.7,2.8,0.2&#10;&#9;&#9;&#9;&#9;&#9;c0.7,0.8,0.7,2.1-0.2,2.8c-8.8,7.9-15.6,18-19.7,29.1C370.3,259.4,369.6,259.9,368.8,259.9z"/>
			</g>
			<g>
				<path d="M674.2,312.1c-0.5,0-0.9-0.2-1.3-0.5c-0.9-0.7-1-2-0.3-2.8c4.2-5.1,6.2-12,5.3-18.6c-0.1-1.1,0.6-2.1,1.7-2.3&#10;&#9;&#9;&#9;&#9;&#9;c1.1-0.1,2.1,0.6,2.3,1.7c1,7.6-1.3,15.8-6.2,21.7C675.3,311.9,674.7,312.1,674.2,312.1z"/>
			</g>
			<g>
				<path d="M684,321c-0.4,0-0.8-0.1-1.1-0.4c-0.9-0.6-1.1-1.9-0.5-2.8c4.1-5.9,7-12.4,8.7-19.3c0.3-1.1,1.3-1.7,2.4-1.5&#10;&#9;&#9;&#9;&#9;&#9;c1.1,0.3,1.7,1.3,1.5,2.4c-1.8,7.4-5,14.4-9.3,20.7C685.3,320.7,684.6,321,684,321z"/>
			</g>
			<g>
				<g>
					<path d="M419,381.9c2.2-19.4-4.7-38.3-18.3-52c-3.2-3.2-7.4,2.4-4.3,5.5c11.9,11.9,17.6,28.9,15.7,45.6&#10;&#9;&#9;&#9;&#9;&#9;&#9;C411.5,385.5,418.4,386.4,419,381.9L419,381.9z"/>
				</g>
			</g>
			<g>
				<path d="M 410.299988 327.799988 A 14 14 0 0 1 396.299988 341.799988 A 14 14 0 0 1 382.299988 327.799988 A 14 14 0 0 1 396.299988 313.799988 A 14 14 0 0 1 410.299988 327.799988 Z"/>
			</g>
			<g>
				<g>
					<path d="M392.9,381.4c-3.1-17.5-13.7-32.3-29-41.3c-3.9-2.3-6.6,4.2-2.7,6.4c13.1,7.6,22.1,20.9,24.8,35.8&#10;&#9;&#9;&#9;&#9;&#9;&#9;C386.7,386.8,393.7,385.9,392.9,381.4L392.9,381.4z"/>
				</g>
			</g>
			<g>
				<path d="M 368.200012 338.899994 A 14 14 0 0 1 354.200012 352.899994 A 14 14 0 0 1 340.200012 338.899994 A 14 14 0 0 1 354.200012 324.899994 A 14 14 0 0 1 368.200012 338.899994 Z"/>
			</g>
		</g>
		<g>
			<g>
				<path d="M449.8,538.2c-6,16.6-8.9,34.2-8.7,51.8c0.1,9.7,15.1,9.8,15,0.1c-0.2-16.5,2.5-32.5,8.1-48&#10;&#9;&#9;&#9;&#9;&#9;C467.6,533.1,453.1,529.2,449.8,538.2L449.8,538.2z"/>
			</g>
		</g>
		<g>
			<g>
				<path class="st4" d="M1040.7,736.8c-208.7-57.3-417.3,57.3-626,0c0-56.1,0-112.3,0-168.4c208.7,57.3,417.3-57.3,626,0&#10;&#9;&#9;&#9;&#9;&#9;C1040.7,624.5,1040.7,680.6,1040.7,736.8z" style="fill: rgb(255, 255, 255);"/>
			</g>
			<g>
				<g>
					<path d="M451.6,715.1c0-37,0-73.9,0-110.9c15.9,2.9,31.7,4.9,47.6,6.2c0,5.6,0,11.2,0,16.8c-10.3-0.8-20.6-2-30.9-3.5&#10;&#9;&#9;&#9;&#9;&#9;&#9;c0,10.1,0,20.2,0,30.2c7.5,1.1,15,2,22.5,2.7c0,5.6,0,11.2,0,16.8c-7.5-0.7-15-1.6-22.5-2.7c0,10.1,0,20.2,0,30.2&#10;&#9;&#9;&#9;&#9;&#9;&#9;c10.3,1.5,20.6,2.6,30.9,3.5c0,5.6,0,11.2,0,16.8C483.3,720.1,467.5,718,451.6,715.1z"/>
				</g>
				<g>
					<path d="M539.5,612.5c9.3,0.1,16.1,2.6,20.5,7.6c3.8,4.4,5.7,10.6,5.7,18.6c0,5.4,0,10.7,0,16.1c0,7.8-3,14.6-8.9,20.1&#10;&#9;&#9;&#9;&#9;&#9;&#9;c4.1,16.1,8.3,32.1,12.4,48.1c-6,0.2-12,0.3-18.1,0.3c-3.4-13.9-6.8-27.8-10.1-41.7c-0.5,0-1,0-1.5,0c-3.2,0-6.4-0.1-9.6-0.2&#10;&#9;&#9;&#9;&#9;&#9;&#9;c0,13.9,0,27.8,0,41.7c-5.6-0.2-11.1-0.4-16.7-0.7c0-36.9,0-73.8,0-110.8C521.9,612.1,530.7,612.4,539.5,612.5z M549.5,639.2&#10;&#9;&#9;&#9;&#9;&#9;&#9;c0-6.4-3.2-9.6-9.5-9.7c-3.4,0-6.7-0.1-10.1-0.2c0,11.8,0,23.6,0,35.5c3.4,0.1,6.7,0.2,10.1,0.2c2.7,0,4.9-0.9,6.8-2.8&#10;&#9;&#9;&#9;&#9;&#9;&#9;c1.9-1.9,2.8-4.2,2.8-6.8C549.5,650,549.5,644.6,549.5,639.2z"/>
				</g>
				<g>
					<path d="M612.4,609.6c9.3-0.8,16.1,1.1,20.5,5.8c3.8,4.1,5.7,10.1,5.7,18.2c0,5.4,0,10.7,0,16.1c0,7.8-3,14.8-8.9,20.8&#10;&#9;&#9;&#9;&#9;&#9;&#9;c4.1,15.7,8.3,31.4,12.4,47.1c-6,0.6-12,1.2-18.1,1.8c-3.4-13.6-6.8-27.2-10.1-40.8c-0.5,0-1,0.1-1.5,0.1&#10;&#9;&#9;&#9;&#9;&#9;&#9;c-3.2,0.3-6.4,0.5-9.6,0.7c0,13.9,0,27.8,0,41.7c-5.6,0.4-11.1,0.7-16.7,1c0-36.9,0-73.8,0-110.8&#10;&#9;&#9;&#9;&#9;&#9;&#9;C594.8,611,603.6,610.4,612.4,609.6z M622.3,635.5c0-6.4-3.2-9.3-9.5-8.8c-3.4,0.3-6.7,0.5-10.1,0.8c0,11.8,0,23.6,0,35.5&#10;&#9;&#9;&#9;&#9;&#9;&#9;c3.4-0.2,6.7-0.5,10.1-0.8c2.7-0.2,4.9-1.4,6.8-3.4c1.9-2,2.8-4.4,2.8-7.1C622.3,646.3,622.3,640.9,622.3,635.5z"/>
				</g>
				<g>
					<path d="M682.5,600.6c7.4-0.9,13.6,0.8,18.8,5.3c5.2,4.5,7.7,10.4,7.7,17.7c0,20.2,0,40.3,0,60.5c0,7.4-2.6,14-7.8,19.8&#10;&#9;&#9;&#9;&#9;&#9;&#9;c-5.2,5.9-11.4,9.3-18.7,10.2c-7.4,0.9-13.6-0.9-18.7-5.4c-5.1-4.6-7.7-10.5-7.7-17.8c0-20.2,0-40.3,0-60.5&#10;&#9;&#9;&#9;&#9;&#9;&#9;c0-7.4,2.6-13.9,7.8-19.7C669,604.9,675.2,601.6,682.5,600.6z M691.6,625.6c0-2.7-0.9-4.8-2.8-6.4c-1.9-1.6-4.1-2.2-6.8-1.9&#10;&#9;&#9;&#9;&#9;&#9;&#9;c-2.7,0.3-4.9,1.6-6.8,3.6c-1.9,2.1-2.8,4.5-2.8,7.1c0,20.2,0,40.4,0,60.6c0,2.7,0.9,4.8,2.8,6.4c1.9,1.6,4.2,2.3,6.8,1.9&#10;&#9;&#9;&#9;&#9;&#9;&#9;c2.7-0.3,4.9-1.6,6.8-3.7c1.9-2.1,2.8-4.5,2.8-7.1C691.6,666,691.6,645.8,691.6,625.6z"/>
				</g>
				<g>
					<path d="M752.6,592.6c9.3-1.3,16.1,0.4,20.5,5c3.8,4,5.7,10,5.7,18c0,5.4,0,10.7,0,16.1c0,7.8-3,14.8-8.9,21&#10;&#9;&#9;&#9;&#9;&#9;&#9;c4.1,15.6,8.3,31.2,12.4,46.8c-6,0.8-12,1.5-18.1,2.3c-3.4-13.5-6.8-26.9-10.1-40.4c-0.5,0.1-1,0.1-1.5,0.2&#10;&#9;&#9;&#9;&#9;&#9;&#9;c-3.2,0.4-6.4,0.9-9.6,1.3c0,13.9,0,27.8,0,41.7c-5.6,0.8-11.1,1.5-16.7,2.3c0-36.9,0-73.8,0-110.8&#10;&#9;&#9;&#9;&#9;&#9;&#9;C735,595,743.8,593.8,752.6,592.6z M762.6,617.9c0-6.4-3.2-9.2-9.5-8.4c-3.4,0.5-6.7,0.9-10.1,1.4c0,11.8,0,23.6,0,35.5&#10;&#9;&#9;&#9;&#9;&#9;&#9;c3.4-0.5,6.7-0.9,10.1-1.4c2.7-0.4,4.9-1.6,6.8-3.7c1.9-2.1,2.8-4.5,2.8-7.2C762.6,628.7,762.6,623.3,762.6,617.9z"/>
				</g>
				<g>
					<path class="st3" d="M810.3,655.5c9.8-24.5,19.7-48.8,29.5-73.1c5.6-0.5,11.1-0.9,16.7-1.3c0,23.4,0,46.8,0,70.2&#10;&#9;&#9;&#9;&#9;&#9;&#9;c3.6-0.2,7.1-0.5,10.7-0.7c0,5.6,0,11.2,0,16.8c-3.6,0.2-7.1,0.4-10.7,0.7c0,8,0,15.9,0,23.9c-5.6,0.4-11.1,0.8-16.7,1.3&#10;&#9;&#9;&#9;&#9;&#9;&#9;c0-8,0-15.9,0-23.9c-9.8,0.8-19.7,1.8-29.5,2.9C810.3,666.7,810.3,661.1,810.3,655.5z M839.8,652.6c0-11.5,0-23.1,0-34.6&#10;&#9;&#9;&#9;&#9;&#9;&#9;c-4.6,11.9-9.2,23.9-13.8,35.9C830.6,653.4,835.2,653,839.8,652.6z" style="fill: rgb(255, 222, 23);"/>
				</g>
				<g>
					<path class="st3" d="M936.4,665.6c0,7.4-2.6,13.5-7.8,18.4c-5.2,5-11.4,7.4-18.7,7.4c-7.4,0-13.6-2.5-18.8-7.5&#10;&#9;&#9;&#9;&#9;&#9;&#9;c-5.2-5-7.7-11.2-7.7-18.5c0-20.2,0-40.3,0-60.5c0-7.4,2.6-13.7,7.8-19c5.2-5.3,11.4-8,18.7-8c7.4,0,13.6,2.8,18.7,8.1&#10;&#9;&#9;&#9;&#9;&#9;&#9;c5.1,5.4,7.7,11.7,7.7,19C936.4,625.2,936.4,645.4,936.4,665.6z M919.1,604.2c0-2.7-0.9-4.9-2.8-6.8c-1.9-1.9-4.2-2.9-6.8-2.9&#10;&#9;&#9;&#9;&#9;&#9;&#9;c-2.7,0-4.9,1-6.8,2.9c-1.9,1.9-2.8,4.2-2.8,6.8c0,20.2,0,40.4,0,60.6c0,2.7,0.9,4.9,2.8,6.8c1.9,1.9,4.1,2.8,6.8,2.8&#10;&#9;&#9;&#9;&#9;&#9;&#9;c2.7,0,4.9-0.9,6.8-2.8c1.9-1.9,2.8-4.1,2.8-6.8C919.1,644.6,919.1,624.4,919.1,604.2z" style="fill: rgb(255, 222, 23);"/>
				</g>
				<g>
					<path class="st3" d="M950.4,650.9c9.8-22.7,19.7-45.1,29.5-67.2c5.6,0.7,11.1,1.5,16.7,2.5c0,23.4,0,46.8,0,70.2&#10;&#9;&#9;&#9;&#9;&#9;&#9;c3.6,0.6,7.1,1.2,10.7,1.9c0,5.6,0,11.2,0,16.8c-3.6-0.7-7.1-1.3-10.7-1.9c0,8,0,15.9,0,23.9c-5.6-0.9-11.1-1.8-16.7-2.5&#10;&#9;&#9;&#9;&#9;&#9;&#9;c0-8,0-15.9,0-23.9c-9.8-1.3-19.7-2.3-29.5-3C950.4,662.1,950.4,656.5,950.4,650.9z M979.9,653.9c0-11.5,0-23.1,0-34.6&#10;&#9;&#9;&#9;&#9;&#9;&#9;c-4.6,10.9-9.2,22-13.8,33C970.7,652.7,975.3,653.3,979.9,653.9z" style="fill: rgb(255, 222, 23);"/>
				</g>
			</g>
		</g>
		<g>
			<g>
				<path d="M470.5,543.8c10.5,14,14.1,31.5,9.3,48.4c-2.7,9.3,11.8,13.2,14.5,4c5.8-20.4,2-43-10.8-60c-2.5-3.3-6.4-4.9-10.3-2.7&#10;&#9;&#9;&#9;&#9;&#9;C469.9,535.4,468,540.5,470.5,543.8L470.5,543.8z"/>
			</g>
		</g>
		<g>
			<g>
				<path d="M538,542.1c9.6,12.9,15.8,27.9,17.2,44c0.9,9.6,15.9,9.7,15,0.1c-1.7-18.7-8-36.5-19.3-51.7c-2.4-3.3-6.4-4.9-10.3-2.7&#10;&#9;&#9;&#9;&#9;&#9;C537.4,533.7,535.6,538.8,538,542.1L538,542.1z"/>
			</g>
		</g>
	</g>
	<g>
		<path d="M1060.6,469.8c-4.6,0-9.4-0.5-14.2-1.4c-11.8-2.2-23.1-6.8-34.1-11.1c-3.9-1.5-7.9-3.1-11.8-4.6&#10;&#9;&#9;&#9;c-12.8-4.8-29.7-9.8-46.1-6.7c-8.8,1.7-16.8,5.5-25.3,9.5c-5.9,2.8-11.9,5.7-18.3,7.8c-15.9,5.2-33.3,5.2-49.2-0.1&#10;&#9;&#9;&#9;c-5.1-1.7-10.2-4-15.1-6.1c-12.3-5.4-23.8-10.6-35.9-8.1c-6.5,1.3-12.2,4.8-18.3,8.4c-3.5,2.1-7.2,4.3-11.1,6.1&#10;&#9;&#9;&#9;c-17.6,8-39,5.9-54.7-5.4c-0.9-0.6-1.1-1.9-0.5-2.8c0.6-0.9,1.9-1.1,2.8-0.5c14.5,10.4,34.5,12.4,50.7,5c3.6-1.7,7.2-3.8,10.7-5.9&#10;&#9;&#9;&#9;c6.1-3.7,12.4-7.4,19.5-8.9c13.4-2.8,26.1,2.9,38.4,8.4c4.8,2.1,9.8,4.4,14.7,6c15,5,31.6,5.1,46.7,0.1c6.1-2,12-4.8,17.8-7.6&#10;&#9;&#9;&#9;c8.3-4,16.9-8.1,26.2-9.8c17.4-3.3,34.9,2,48.2,6.9c4,1.5,8,3.1,11.9,4.6c10.8,4.3,21.9,8.7,33.3,10.9c17.5,3.3,33.7,0.2,44.2-8.5&#10;&#9;&#9;&#9;c0.9-0.7,2.1-0.6,2.8,0.3c0.7,0.9,0.6,2.1-0.3,2.8C1085.4,466.1,1073.7,469.8,1060.6,469.8z"/>
	</g>
	<g>
		<path d="M1099.9,622.3c-11.4,0-22.8-3.4-32.2-10.1c-0.9-0.6-1.1-1.9-0.5-2.8c0.6-0.9,1.9-1.1,2.8-0.5c14.5,10.4,34.5,12.4,50.7,5&#10;&#9;&#9;&#9;c3.6-1.7,7.2-3.8,10.7-5.9c6.1-3.7,12.4-7.4,19.5-8.9c13.4-2.8,26.1,2.9,38.4,8.4c4.8,2.1,9.8,4.4,14.7,6c15,5,31.6,5.1,46.7,0.1&#10;&#9;&#9;&#9;c1-0.3,2.2,0.2,2.5,1.3c0.3,1-0.2,2.2-1.3,2.5c-15.9,5.2-33.3,5.2-49.2-0.1c-5.1-1.7-10.2-4-15.1-6.1&#10;&#9;&#9;&#9;c-12.3-5.4-23.8-10.6-35.9-8.1c-6.5,1.3-12.2,4.8-18.3,8.4c-3.5,2.1-7.2,4.3-11.1,6.1C1115.3,620.7,1107.6,622.3,1099.9,622.3z"/>
	</g>
	<g>
		<path d="M1099.9,652.3c-11.4,0-22.8-3.4-32.2-10.1c-0.9-0.6-1.1-1.9-0.5-2.8c0.6-0.9,1.9-1.1,2.8-0.5c14.5,10.4,34.5,12.4,50.7,5&#10;&#9;&#9;&#9;c3.6-1.7,7.2-3.8,10.7-5.9c6.1-3.7,12.4-7.4,19.5-8.9c13.4-2.8,26.1,2.9,38.4,8.4c4.8,2.1,9.8,4.4,14.7,6c15,5,31.6,5.1,46.7,0.1&#10;&#9;&#9;&#9;c1-0.3,2.2,0.2,2.5,1.3c0.3,1-0.2,2.2-1.3,2.5c-15.9,5.2-33.3,5.2-49.2-0.1c-5.1-1.7-10.2-4-15.1-6.1&#10;&#9;&#9;&#9;c-12.3-5.4-23.8-10.6-35.9-8.1c-6.5,1.3-12.2,4.8-18.3,8.4c-3.5,2.1-7.2,4.3-11.1,6.1C1115.3,650.7,1107.6,652.3,1099.9,652.3z"/>
	</g>
	<g>
		<path d="M1099.9,682.4c-11.4,0-22.8-3.4-32.2-10.1c-0.9-0.6-1.1-1.9-0.5-2.8c0.6-0.9,1.9-1.1,2.8-0.5c14.5,10.4,34.5,12.4,50.7,5&#10;&#9;&#9;&#9;c3.6-1.7,7.2-3.8,10.7-5.9c6.1-3.7,12.4-7.4,19.5-8.9c13.4-2.8,26.1,2.9,38.4,8.4c4.8,2.1,9.8,4.4,14.7,6c15,5,31.6,5.1,46.7,0.1&#10;&#9;&#9;&#9;c1-0.3,2.2,0.2,2.5,1.3c0.3,1-0.2,2.2-1.3,2.5c-15.9,5.2-33.3,5.2-49.2-0.1c-5.1-1.7-10.2-4-15.1-6.1&#10;&#9;&#9;&#9;c-12.3-5.4-23.8-10.6-35.9-8.1c-6.5,1.3-12.2,4.8-18.3,8.4c-3.5,2.1-7.2,4.3-11.1,6.1C1115.3,680.8,1107.6,682.4,1099.9,682.4z"/>
	</g>
</g>
<path class="st4" d="M931.6,217.7c-5.3-14.5-25.2-20.1-38.8-12.9s-20.4,24.1-18.8,39.4c-9.1-0.2-18.4,3.5-23.9,10.7&#10;&#9;c-5.5,7.2-6.3,18-1,25.4c5.3,7.3,16.9,9.7,24,4.1c0,12.2,9.1,23.8,21,26.7c11.9,2.9,25.3-3.1,31-13.9c5.3,8.3,12.4,16.3,22,18.7&#10;&#9;c9.6,2.4,21.6-3.5,22.3-13.3c5.7,8.7,17.9,12.6,27.6,8.6c9.6-4,15.7-15.3,13.5-25.5c7.3,4.5,17.6,3.3,23.6-2.8&#10;&#9;c6-6.1,7.1-16.4,2.5-23.6c-4.6-7.2-14.5-10.6-22.5-7.7c5-10,5.2-22.9-1.8-31.6c-7-8.7-21.8-10.7-29.4-2.6&#10;&#9;c-3.7-10.6-14.5-18.2-25.7-18.2C945.9,199.3,935.2,207.1,931.6,217.7z" style="fill: rgb(255, 255, 255);"/>
<g>
	<path class="st4" d="M772.5,0.5c-14.6,15.8-17,41.8-4.9,59.6s37.7,25.1,57.1,16c-3.3,15.8,6.9,33.2,22.3,38&#10;&#9;&#9;c15.4,4.8,33.7-3.8,39.9-18.7c6.7,10.5,19.1,17.1,31.5,16.8c12.5-0.3,24.5-7.6,30.6-18.4c5.3,13.7,20,23.2,34.7,22.4&#10;&#9;&#9;c14.7-0.8,28.3-11.8,32.2-26c7,6.8,16,12,25.8,13.1c9.7,1.1,20.3-2.4,26.2-10.2c6-7.8,6.4-19.8-0.2-27.1c14.8,3.7,31.3-1.8,42-12.7&#10;&#9;&#9;c10.7-10.9,15.8-26.7,15.1-42c-0.2-3.7-0.7-7.5-1.7-11.2H773C772.8,0.2,772.7,0.3,772.5,0.5z" style="fill: rgb(255, 255, 255);"/>
	<path class="st4" d="M239.8,0c-0.7,2.8-0.7,5.8,0.1,8.6c0,0-17.2,4.8-25.2,13.4c-11.1,11.9-12.8,31.6-3.7,45&#10;&#9;&#9;c9.1,13.5,28.5,19,43.2,12.1c-2.5,11.9,5.2,25.1,16.9,28.7c11.6,3.6,25.5-2.9,30.1-14.1c5,8,14.4,13,23.8,12.7&#10;&#9;&#9;c9.4-0.2,18.5-5.7,23.2-13.9c4,10.4,15.1,17.5,26.3,17c11.1-0.6,21.4-8.9,24.3-19.6c5.3,5.2,12.1,9.1,19.5,9.9&#10;&#9;&#9;c7.4,0.8,15.3-1.8,19.8-7.7c4.5-5.9,4.8-15-0.2-20.5c11.2,2.8,23.6-1.4,31.7-9.6c8.1-8.3,11.9-20.2,11.4-31.7&#10;&#9;&#9;c-0.4-9.6-4.3-19.7-12.5-24.7c-8.7-5.4-19.9-3.8-30.1-2.1c0.2-1.1,0.2-2.2,0.2-3.3H239.8z" style="fill: rgb(255, 255, 255);"/>
	<path class="st4" d="M0,320.1c5.1-3.1,9.5-7.4,12.4-12.5c5.1,13,19.1,22.1,33,21.3c14-0.7,26.9-11.2,30.6-24.7&#10;&#9;&#9;c6.7,6.5,15.2,11.4,24.5,12.5c9.3,1,19.3-2.3,24.9-9.7c5.7-7.4,6.1-18.9-0.2-25.8c14.1,3.5,29.7-1.7,39.9-12.1&#10;&#9;&#9;c10.2-10.4,15-25.4,14.4-39.9c-0.6-12.1-5.4-24.8-15.7-31.1c-11-6.8-25.1-4.8-37.8-2.6c2-14.6-5.8-29.8-18-38&#10;&#9;&#9;c-12.3-8.2-28.3-9.9-42.6-6.1c-14.3,3.8-26.9,12.8-36.6,23.9c-4.6-9.3-14.3-15.9-24.7-16.7c-1.4-0.1-2.7-0.1-4.1,0V320.1z" style="fill: rgb(255, 255, 255);"/>
	<path class="st4" d="M1400,63.6c-4.3,3.7-8.3,7.7-12,12c-6.7-13.5-20.8-23.1-35.9-24.3c-15.1-1.2-30.5,6-39.3,18.3&#10;&#9;&#9;c-9.3-19.9-32.5-32.3-54.2-28.9s-40,22.3-42.8,44c-9.4-9.3-25.2-11.2-36.5-4.4c-11.3,6.8-17,21.8-13.1,34.4c0,0-31.4,8.8-46.1,24.6&#10;&#9;&#9;c-20.2,21.8-23.5,57.8-6.8,82.4c16.7,24.6,52,34.8,78.9,22.1c-4.6,21.8,9.6,45.9,30.8,52.5c21.3,6.6,46.6-5.3,55.1-25.8&#10;&#9;&#9;c9.2,14.5,26.4,23.7,43.6,23.2c17.2-0.4,33.9-10.5,42.4-25.5c5.9,15.2,20.1,26.6,35.9,30V63.6z" style="fill: rgb(255, 255, 255);"/>
</g>
<g transform="matrix(1, 0, 0, 1, 9.177378080462518, -114.06169900003432)">
	<path class="st5" d="M1214.2,928.5c-4.7,16.7-6.2,34.2-4.6,51.5h9.1c-0.3-3.1-0.5-6.2-0.6-9.3c9.1,6.1,21.6,6.6,31.8,2.3&#10;&#9;&#9;c11.6-4.8,20.4-14.7,26.4-25.7c-11.5-1.4-23.3-2.2-34.6,0.6c-9.2,2.3-18,7.2-23.6,14.6c0.3-8.6,1.4-17.2,3.3-25.7&#10;&#9;&#9;C1218.5,934.6,1216,931.8,1214.2,928.5z" style="fill: rgb(0, 161, 75);"/>
	<path class="st5" d="M1307.7,929.1c-5.6,16.5-9.1,33.6-10.4,50.9h9c0.2-3.1,0.5-6.2,0.9-9.2c9.1,7.1,22.5,7.9,33.2,3.4&#10;&#9;&#9;c11.6-4.8,20.4-14.7,26.4-25.7c-11.5-1.4-23.3-2.2-34.6,0.6c-9.5,2.4-18.5,7.6-24.2,15.4c1.3-8.5,3.2-17,5.7-25.3&#10;&#9;&#9;c-2.9-2.8-4.9-6.5-5.6-10.5C1308.1,928.8,1307.9,928.9,1307.7,929.1z" style="fill: rgb(0, 161, 75);"/>
	<path class="st5" d="M1119.8,942.3c-0.2,1.3-0.3,2.5-0.4,3.8c-0.2,2.3-0.4,4.6-0.6,6.9c-5.7-7.4-14.5-12.4-23.7-14.7&#10;&#9;&#9;c-11.2-2.8-23.1-2.1-34.6-0.6c6,11,14.8,20.9,26.4,25.7c10.1,4.2,22.4,3.8,31.4-2c-0.3,6.2-0.3,12.4-0.1,18.6h9.1&#10;&#9;&#9;c-0.1-3.6-0.1-7.1-0.1-10.7c9.1,7.5,22.8,8.3,33.7,3.8c11.6-4.8,20.4-14.7,26.4-25.7c-11.5-1.4-23.3-2.2-34.6,0.6&#10;&#9;&#9;c-10.2,2.6-20,8.4-25.5,17.3c0.1-3.9,0.3-7.9,0.5-11.8c0.2-2.7,0.4-5.6,0.7-8.5c-0.3,0-0.7,0-1-0.1&#10;&#9;&#9;C1124.8,944.6,1122.2,943.7,1119.8,942.3z" style="fill: rgb(0, 161, 75);"/>
	<path class="st6" d="M1277.1,900c-10.3-7.3-13.2-23.3-6.1-33.8c4.8-7.1,13.6-10.9,22.2-10.5c-0.4-1.1-0.8-2.1-1.4-3.1&#10;&#9;&#9;c-5.6-9.7-19.4-13.5-29.2-8c4.1-10.1,2-22.4-5.2-30.5c-7.2-8.2-19.2-11.8-29.7-8.9c-10.5,2.8-19.1,11.9-21.2,22.6&#10;&#9;&#9;c-14.3-9.2-35.5-4.8-45,9.3c-6.6,9.8-6.7,23-1.6,33.5c4.2,1,8,3.6,10.1,7.3c4.1,7.3,1.4,17.6-5.9,21.8c6.1,1.5,10.5,7.7,10.7,14&#10;&#9;&#9;c0.1,3.4-1,6.8-2.8,9.7c3.3,2.2,7,3.7,10.8,4.5c9.9,1.9,20.5-1.1,28.6-7.1c0.5,2.8,1.5,5.4,2.8,7.8c1.8,3.2,4.3,6.1,7.2,8.4&#10;&#9;&#9;c3.9,3,8.5,5,13.4,5.5c11.4,1.1,23-6,27.2-16.6c3.9,0.8,7.9,0.9,11.9,0.4c-1.5-1.8-2.7-3.9-3.4-6.2&#10;&#9;&#9;C1268.2,912.8,1270.8,904.1,1277.1,900z M1250.2,889.4c-16.9,14.1-47.8,17.2-54.8-8.7c-3.8-14.2,8.7-26.2,20.5-31.5&#10;&#9;&#9;C1242,837.6,1276.7,867.2,1250.2,889.4z" style="fill: rgb(238, 76, 153);"/>
	<path class="st0" d="M1216,849.2c-11.8,5.3-24.3,17.3-20.5,31.5c6.9,25.9,37.9,22.9,54.8,8.7C1276.7,867.2,1242,837.6,1216,849.2z" style="fill: rgb(150, 216, 232);"/>
	<path class="st7" d="M1164.1,899.6c7.2-4.2,10-14.5,5.9-21.8c-2.1-3.7-5.9-6.3-10.1-7.3c-3.9-1-8.1-0.6-11.7,1.4&#10;&#9;&#9;c3.1-7.5,1.5-16.7-3.9-22.8c-5.4-6.1-14.3-8.8-22.1-6.7c-7.8,2.1-14.2,8.9-15.8,16.9c-10.7-6.8-26.5-3.6-33.6,6.9&#10;&#9;&#9;c-7.1,10.5-4.2,26.4,6.1,33.8c-6.3,4.1-8.9,12.8-6.6,20c2.3,7.2,9,12.6,16.4,14c7.4,1.4,15.3-0.8,21.4-5.3c1,5.7,4.8,10.7,9.8,13.7&#10;&#9;&#9;c2.3,1.4,5,2.3,7.7,2.5c0.3,0,0.7,0,1,0.1c8.2,0.4,16.3-4.9,19.3-12.5c6.2,1.2,12.9,0.4,18.2-3c2.4-1.5,4.5-3.6,6-6.1&#10;&#9;&#9;c1.8-2.9,2.9-6.3,2.8-9.7C1174.6,907.3,1170.2,901.2,1164.1,899.6z M1143.6,905.3c-12.6,10.6-35.7,12.9-40.9-6.5&#10;&#9;&#9;c-2.8-10.6,6.5-19.5,15.3-23.5C1137.5,866.6,1163.4,888.7,1143.6,905.3z" style="fill: rgb(251, 176, 64);"/>
	<path class="st0" d="M1118.1,875.3c-8.8,3.9-18.1,12.9-15.3,23.5c5.2,19.4,28.3,17.1,40.9,6.5&#10;&#9;&#9;C1163.4,888.7,1137.5,866.6,1118.1,875.3z" style="fill: rgb(150, 216, 232);"/>
	<path class="st8" d="M1362.3,899.6c7.2-4.2,10-14.5,5.9-21.8c-4.1-7.3-14.5-10.1-21.8-6c3.1-7.5,1.5-16.7-3.9-22.8&#10;&#9;&#9;c-5.4-6.1-14.3-8.8-22.1-6.7c-7.8,2.1-14.2,8.9-15.8,16.9c-3.4-2.2-7.4-3.3-11.4-3.5c-8.5-0.4-17.4,3.4-22.2,10.5&#10;&#9;&#9;c-7.1,10.5-4.2,26.4,6.1,33.8c-6.3,4.1-8.9,12.8-6.6,20c0.7,2.3,1.9,4.4,3.4,6.2c3.2,4,8,6.8,13,7.8c7.2,1.4,14.8-0.7,20.8-4.9&#10;&#9;&#9;c0.2-0.1,0.4-0.2,0.5-0.4c0.7,4,2.8,7.6,5.6,10.5c3.2,3.1,7.4,5.3,11.8,5.7c8.5,0.8,17.2-4.5,20.3-12.4c6.2,1.2,12.9,0.4,18.2-3&#10;&#9;&#9;s9-9.5,8.8-15.8C1372.8,907.3,1368.4,901.2,1362.3,899.6z M1341.9,905.3c-12.6,10.6-35.7,12.9-40.9-6.5&#10;&#9;&#9;c-2.8-10.6,6.5-19.5,15.3-23.5C1335.7,866.6,1361.7,888.7,1341.9,905.3z" style="fill: rgb(241, 90, 41);"/>
	<path class="st0" d="M1316.3,875.3c-8.8,3.9-18.1,12.9-15.3,23.5c5.2,19.4,28.3,17.1,40.9,6.5&#10;&#9;&#9;C1361.7,888.7,1335.7,866.6,1316.3,875.3z" style="fill: rgb(150, 216, 232);"/>
	<path class="st5" d="M518,928.5c-4.7,16.7-6.2,34.2-4.6,51.5h9.1c-0.3-3.1-0.5-6.2-0.6-9.3c9.1,6.1,21.6,6.6,31.8,2.3&#10;&#9;&#9;c11.6-4.8,20.4-14.7,26.4-25.7c-11.5-1.4-23.3-2.2-34.6,0.6c-9.2,2.3-18,7.2-23.6,14.6c0.3-8.6,1.4-17.2,3.3-25.7&#10;&#9;&#9;C522.2,934.6,519.8,931.8,518,928.5z" style="fill: rgb(0, 161, 75);"/>
	<path class="st5" d="M423.5,942.3c-0.2,1.3-0.3,2.5-0.4,3.8c-0.2,2.3-0.4,4.6-0.6,6.9c-5.7-7.4-14.5-12.4-23.7-14.7&#10;&#9;&#9;c-11.2-2.8-23.1-2.1-34.6-0.6c6,11,14.8,20.9,26.4,25.7c10.1,4.2,22.4,3.8,31.4-2c-0.3,6.2-0.3,12.4-0.1,18.6h9.1&#10;&#9;&#9;c-0.1-3.6-0.1-7.1-0.1-10.7c9.1,7.5,22.8,8.3,33.7,3.8c11.6-4.8,20.4-14.7,26.4-25.7c-11.5-1.4-23.3-2.2-34.6,0.6&#10;&#9;&#9;c-10.2,2.6-20,8.4-25.5,17.3c0.1-3.9,0.3-7.9,0.5-11.8c0.2-2.7,0.4-5.6,0.7-8.5c-0.3,0-0.7,0-1-0.1&#10;&#9;&#9;C428.5,944.6,425.9,943.7,423.5,942.3z" style="fill: rgb(0, 161, 75);"/>
	<path class="st6" d="M580.8,900c-10.3-7.3-13.2-23.3-6.1-33.8c4.8-7.1,13.6-10.9,22.2-10.5c-0.4-1.1-0.8-2.1-1.4-3.1&#10;&#9;&#9;c-5.6-9.7-19.4-13.5-29.2-8c4.1-10.1,2-22.4-5.2-30.5c-7.2-8.2-19.2-11.8-29.7-8.9c-10.5,2.8-19.1,11.9-21.2,22.6&#10;&#9;&#9;c-14.3-9.2-35.5-4.8-45,9.3c-6.6,9.8-6.7,23-1.6,33.5c4.2,1,8,3.6,10.1,7.3c4.1,7.3,1.4,17.6-5.9,21.8c6.1,1.5,10.5,7.7,10.7,14&#10;&#9;&#9;c0.1,3.4-1,6.8-2.8,9.7c3.3,2.2,7,3.7,10.8,4.5c9.9,1.9,20.5-1.1,28.6-7.1c0.5,2.8,1.5,5.4,2.8,7.8c1.8,3.2,4.3,6.1,7.2,8.4&#10;&#9;&#9;c3.9,3,8.5,5,13.4,5.5c11.4,1.1,23-6,27.2-16.6c3.9,0.8,7.9,0.9,11.9,0.4c-1.5-1.8-2.7-3.9-3.4-6.2&#10;&#9;&#9;C571.9,912.8,574.5,904.1,580.8,900z M553.9,889.4c-16.9,14.1-47.8,17.2-54.8-8.7c-3.8-14.2,8.7-26.2,20.5-31.5&#10;&#9;&#9;C545.7,837.6,580.5,867.2,553.9,889.4z" style="fill: rgb(238, 76, 153);"/>
	<path class="st0" d="M519.7,849.2c-11.8,5.3-24.3,17.3-20.5,31.5c6.9,25.9,37.9,22.9,54.8,8.7C580.5,867.2,545.7,837.6,519.7,849.2&#10;&#9;&#9;z" style="fill: rgb(150, 216, 232);"/>
	<path class="st7" d="M467.8,899.6c7.2-4.2,10-14.5,5.9-21.8c-2.1-3.7-5.9-6.3-10.1-7.3c-3.9-1-8.1-0.6-11.7,1.4&#10;&#9;&#9;c3.1-7.5,1.5-16.7-3.9-22.8c-5.4-6.1-14.3-8.8-22.1-6.7c-7.8,2.1-14.2,8.9-15.8,16.9c-10.7-6.8-26.5-3.6-33.6,6.9&#10;&#9;&#9;c-7.1,10.5-4.2,26.4,6.1,33.8c-6.3,4.1-8.9,12.8-6.6,20c2.3,7.2,9,12.6,16.4,14c7.4,1.4,15.3-0.8,21.4-5.3c1,5.7,4.8,10.7,9.8,13.7&#10;&#9;&#9;c2.3,1.4,5,2.3,7.7,2.5c0.3,0,0.7,0,1,0.1c8.2,0.4,16.3-4.9,19.3-12.5c6.2,1.2,12.9,0.4,18.2-3c2.4-1.5,4.5-3.6,6-6.1&#10;&#9;&#9;c1.8-2.9,2.9-6.3,2.8-9.7C478.4,907.3,473.9,901.2,467.8,899.6z M447.4,905.3c-12.6,10.6-35.7,12.9-40.9-6.5&#10;&#9;&#9;c-2.8-10.6,6.5-19.5,15.3-23.5C441.2,866.6,467.2,888.7,447.4,905.3z" style="fill: rgb(251, 176, 64);"/>
	<path class="st0" d="M421.8,875.3c-8.8,3.9-18.1,12.9-15.3,23.5c5.2,19.4,28.3,17.1,40.9,6.5C467.2,888.7,441.2,866.6,421.8,875.3z&#10;&#9;&#9;" style="fill: rgb(150, 216, 232);"/>
	<path class="st8" d="M617.6,939.1c3.2,3.1,7.4,5.3,11.8,5.7c8.5,0.8,17.2-4.5,20.3-12.4c6.2,1.2,12.9,0.4,18.2-3s9-9.5,8.8-15.8&#10;&#9;&#9;c-0.2-6.3-4.6-12.5-10.7-14c7.2-4.2,10-14.5,5.9-21.8c-4.1-7.3-14.5-10.1-21.8-6c3.1-7.5,1.5-16.7-3.9-22.8&#10;&#9;&#9;c-5.4-6.1-14.3-8.8-22.1-6.7c-7.8,2.1-14.2,8.9-15.8,16.9c-3.4-2.2-7.4-3.3-11.4-3.5c-8.5-0.4-17.4,3.4-22.2,10.5&#10;&#9;&#9;c-7.1,10.5-4.2,26.4,6.1,33.8c-6.3,4.1-8.9,12.8-6.6,20c0.7,2.3,1.9,4.4,3.4,6.2c3.2,4,8,6.8,13,7.8c7.2,1.4,14.8-0.7,20.8-4.9&#10;&#9;&#9;c0.2-0.1,0.4-0.2,0.5-0.4C612.7,932.7,614.7,936.3,617.6,939.1z M604.7,898.8c-2.8-10.6,6.5-19.5,15.3-23.5&#10;&#9;&#9;c19.4-8.7,45.4,13.4,25.6,30C633,915.8,609.9,918.1,604.7,898.8z" style="fill: rgb(241, 90, 41);"/>
	<path class="st0" d="M645.6,905.3c19.8-16.6-6.2-38.7-25.6-30c-8.8,3.9-18.1,12.9-15.3,23.5C609.9,918.1,633,915.8,645.6,905.3z" style="fill: rgb(150, 216, 232);"/>
	<path class="st5" d="M644.3,974.1c11.6-4.8,20.4-14.7,26.4-25.7c-11.5-1.4-23.3-2.2-34.6,0.6c-9.5,2.4-18.5,7.6-24.2,15.4&#10;&#9;&#9;c1.3-8.5,3.2-17,5.7-25.3c-2.9-2.8-4.9-6.5-5.6-10.5c-0.2,0.1-0.3,0.2-0.5,0.4c-5.6,16.5-9.1,33.6-10.4,50.9h9&#10;&#9;&#9;c0.2-3.1,0.5-6.2,0.9-9.2C620.2,977.8,633.5,978.6,644.3,974.1z" style="fill: rgb(0, 161, 75);"/>
	<path class="st5" d="M864.6,928.5c-4.7,16.7-6.2,34.2-4.6,51.5h9.1c-0.3-3.1-0.5-6.2-0.6-9.3c9.1,6.1,21.6,6.6,31.8,2.3&#10;&#9;&#9;c11.6-4.8,20.4-14.7,26.4-25.7c-11.5-1.4-23.3-2.2-34.6,0.6c-9.2,2.3-18,7.2-23.6,14.6c0.3-8.6,1.4-17.2,3.3-25.7&#10;&#9;&#9;C868.9,934.6,866.4,931.8,864.6,928.5z" style="fill: rgb(0, 161, 75);"/>
	<path class="st5" d="M770.2,942.3c-0.2,1.3-0.3,2.5-0.4,3.8c-0.2,2.3-0.4,4.6-0.6,6.9c-5.7-7.4-14.5-12.4-23.7-14.7&#10;&#9;&#9;c-11.2-2.8-23.1-2.1-34.6-0.6c6,11,14.8,20.9,26.4,25.7c10.1,4.2,22.4,3.8,31.4-2c-0.3,6.2-0.3,12.4-0.1,18.6h9.1&#10;&#9;&#9;c-0.1-3.6-0.1-7.1-0.1-10.7c9.1,7.5,22.8,8.3,33.7,3.8c11.6-4.8,20.4-14.7,26.4-25.7c-11.5-1.4-23.3-2.2-34.6,0.6&#10;&#9;&#9;c-10.2,2.6-20,8.4-25.5,17.3c0.1-3.9,0.3-7.9,0.5-11.8c0.2-2.7,0.4-5.6,0.7-8.5c-0.3,0-0.7,0-1-0.1&#10;&#9;&#9;C775.2,944.6,772.6,943.7,770.2,942.3z" style="fill: rgb(0, 161, 75);"/>
	<path class="st9" d="M927.5,900c-10.3-7.3-13.2-23.3-6.1-33.8c4.8-7.1,13.6-10.9,22.2-10.5c-0.4-1.1-0.8-2.1-1.4-3.1&#10;&#9;&#9;c-5.6-9.7-19.4-13.5-29.2-8c4.1-10.1,2-22.4-5.2-30.5c-7.2-8.2-19.2-11.8-29.7-8.9c-10.5,2.8-19.1,11.9-21.2,22.6&#10;&#9;&#9;c-14.3-9.2-35.5-4.8-45,9.3c-6.6,9.8-6.7,23-1.6,33.5c4.2,1,8,3.6,10.1,7.3c4.1,7.3,1.4,17.6-5.9,21.8c6.1,1.5,10.5,7.7,10.7,14&#10;&#9;&#9;c0.1,3.4-1,6.8-2.8,9.7c3.3,2.2,7,3.7,10.8,4.5c9.9,1.9,20.5-1.1,28.6-7.1c0.5,2.8,1.5,5.4,2.8,7.8c1.8,3.2,4.3,6.1,7.2,8.4&#10;&#9;&#9;c3.9,3,8.5,5,13.4,5.5c11.4,1.1,23-6,27.2-16.6c3.9,0.8,7.9,0.9,11.9,0.4c-1.5-1.8-2.7-3.9-3.4-6.2&#10;&#9;&#9;C918.6,912.8,921.2,904.1,927.5,900z M900.6,889.4c-16.9,14.1-47.8,17.2-54.8-8.7c-3.8-14.2,8.7-26.2,20.5-31.5&#10;&#9;&#9;C892.4,837.6,927.1,867.2,900.6,889.4z" style="fill: rgb(170, 208, 58);"/>
	<path class="st0" d="M866.4,849.2c-11.8,5.3-24.3,17.3-20.5,31.5c6.9,25.9,37.9,22.9,54.8,8.7C927.1,867.2,892.4,837.6,866.4,849.2&#10;&#9;&#9;z" style="fill: rgb(150, 216, 232);"/>
	<path class="st10" d="M814.5,899.6c7.2-4.2,10-14.5,5.9-21.8c-2.1-3.7-5.9-6.3-10.1-7.3c-3.9-1-8.1-0.6-11.7,1.4&#10;&#9;&#9;c3.1-7.5,1.5-16.7-3.9-22.8c-5.4-6.1-14.3-8.8-22.1-6.7c-7.8,2.1-14.2,8.9-15.8,16.9c-10.7-6.8-26.5-3.6-33.6,6.9&#10;&#9;&#9;c-7.1,10.5-4.2,26.4,6.1,33.8c-6.3,4.1-8.9,12.8-6.6,20c2.3,7.2,9,12.6,16.4,14c7.4,1.4,15.3-0.8,21.4-5.3c1,5.7,4.8,10.7,9.8,13.7&#10;&#9;&#9;c2.3,1.4,5,2.3,7.7,2.5c0.3,0,0.7,0,1,0.1c8.2,0.4,16.3-4.9,19.3-12.5c6.2,1.2,12.9,0.4,18.2-3c2.4-1.5,4.5-3.6,6-6.1&#10;&#9;&#9;c1.8-2.9,2.9-6.3,2.8-9.7C825,907.3,820.6,901.2,814.5,899.6z M794,905.3c-12.6,10.6-35.7,12.9-40.9-6.5&#10;&#9;&#9;c-2.8-10.6,6.5-19.5,15.3-23.5C787.9,866.6,813.8,888.7,794,905.3z" style="fill: rgb(74, 185, 234);"/>
	<path class="st0" d="M768.5,875.3c-8.8,3.9-18.1,12.9-15.3,23.5c5.2,19.4,28.3,17.1,40.9,6.5C813.8,888.7,787.9,866.6,768.5,875.3z&#10;&#9;&#9;" style="fill: rgb(150, 216, 232);"/>
	<path class="st11" d="M964.3,939.1c3.2,3.1,7.4,5.3,11.8,5.7c8.5,0.8,17.2-4.5,20.3-12.4c6.2,1.2,12.9,0.4,18.2-3&#10;&#9;&#9;c5.3-3.4,9-9.5,8.8-15.8c-0.2-6.3-4.6-12.5-10.7-14c7.2-4.2,10-14.5,5.9-21.8c-4.1-7.3-14.5-10.1-21.8-6c3.1-7.5,1.5-16.7-3.9-22.8&#10;&#9;&#9;c-5.4-6.1-14.3-8.8-22.1-6.7c-7.8,2.1-14.2,8.9-15.8,16.9c-3.4-2.2-7.4-3.3-11.4-3.5c-8.5-0.4-17.4,3.4-22.2,10.5&#10;&#9;&#9;c-7.1,10.5-4.2,26.4,6.1,33.8c-6.3,4.1-8.9,12.8-6.6,20c0.7,2.3,1.9,4.4,3.4,6.2c3.2,4,8,6.8,13,7.8c7.2,1.4,14.8-0.7,20.8-4.9&#10;&#9;&#9;c0.2-0.1,0.4-0.2,0.5-0.4C959.4,932.7,961.4,936.3,964.3,939.1z M951.4,898.8c-2.8-10.6,6.5-19.5,15.3-23.5&#10;&#9;&#9;c19.4-8.7,45.4,13.4,25.6,30C979.6,915.8,956.6,918.1,951.4,898.8z" style="fill: rgb(105, 190, 92);"/>
	<path class="st0" d="M992.3,905.3c19.8-16.6-6.2-38.7-25.6-30c-8.8,3.9-18.1,12.9-15.3,23.5C956.6,918.1,979.6,915.8,992.3,905.3z" style="fill: rgb(150, 216, 232);"/>
	<path class="st5" d="M990.9,974.1c11.6-4.8,20.4-14.7,26.4-25.7c-11.5-1.4-23.3-2.2-34.6,0.6c-9.5,2.4-18.5,7.6-24.2,15.4&#10;&#9;&#9;c1.3-8.5,3.2-17,5.7-25.3c-2.9-2.8-4.9-6.5-5.6-10.5c-0.2,0.1-0.3,0.2-0.5,0.4c-5.6,16.5-9.1,33.6-10.4,50.9h9&#10;&#9;&#9;c0.2-3.1,0.5-6.2,0.9-9.2C966.8,977.8,980.1,978.6,990.9,974.1z" style="fill: rgb(0, 161, 75);"/>
	<path class="st5" d="M162.7,928.5c-4.7,16.7-6.2,34.2-4.6,51.5h9.1c-0.3-3.1-0.5-6.2-0.6-9.3c9.1,6.1,21.6,6.6,31.8,2.3&#10;&#9;&#9;c11.6-4.8,20.4-14.7,26.4-25.7c-11.5-1.4-23.3-2.2-34.6,0.6c-9.2,2.3-18,7.2-23.6,14.6c0.3-8.6,1.4-17.2,3.3-25.7&#10;&#9;&#9;C167,934.6,164.5,931.8,162.7,928.5z" style="fill: rgb(0, 161, 75);"/>
	<path class="st5" d="M68.3,942.3c-0.2,1.3-0.3,2.5-0.4,3.8c-0.2,2.3-0.4,4.6-0.6,6.9c-5.7-7.4-14.5-12.4-23.7-14.7&#10;&#9;&#9;c-11.2-2.8-23.1-2.1-34.6-0.6c6,11,14.8,20.9,26.4,25.7c10.1,4.2,22.4,3.8,31.4-2c-0.3,6.2-0.3,12.4-0.1,18.6h9.1&#10;&#9;&#9;c-0.1-3.6-0.1-7.1-0.1-10.7c9.1,7.5,22.8,8.3,33.7,3.8c11.6-4.8,20.4-14.7,26.4-25.7c-11.5-1.4-23.3-2.2-34.6,0.6&#10;&#9;&#9;c-10.2,2.6-20,8.4-25.5,17.3c0.1-3.9,0.3-7.9,0.5-11.8c0.2-2.7,0.4-5.6,0.7-8.5c-0.3,0-0.7,0-1-0.1&#10;&#9;&#9;C73.2,944.6,70.6,943.7,68.3,942.3z" style="fill: rgb(0, 161, 75);"/>
	<path class="st9" d="M225.5,900c-10.3-7.3-13.2-23.3-6.1-33.8c4.8-7.1,13.6-10.9,22.2-10.5c-0.4-1.1-0.8-2.1-1.4-3.1&#10;&#9;&#9;c-5.6-9.7-19.4-13.5-29.2-8c4.1-10.1,2-22.4-5.2-30.5c-7.2-8.2-19.2-11.8-29.7-8.9c-10.5,2.8-19.1,11.9-21.2,22.6&#10;&#9;&#9;c-14.3-9.2-35.5-4.8-45,9.3c-6.6,9.8-6.7,23-1.6,33.5c4.2,1,8,3.6,10.1,7.3c4.1,7.3,1.4,17.6-5.9,21.8c6.1,1.5,10.5,7.7,10.7,14&#10;&#9;&#9;c0.1,3.4-1,6.8-2.8,9.7c3.3,2.2,7,3.7,10.8,4.5c9.9,1.9,20.5-1.1,28.6-7.1c0.5,2.8,1.5,5.4,2.8,7.8c1.8,3.2,4.3,6.1,7.2,8.4&#10;&#9;&#9;c3.9,3,8.5,5,13.4,5.5c11.4,1.1,23-6,27.2-16.6c3.9,0.8,7.9,0.9,11.9,0.4c-1.5-1.8-2.7-3.9-3.4-6.2&#10;&#9;&#9;C216.6,912.8,219.2,904.1,225.5,900z M198.7,889.4c-16.9,14.1-47.8,17.2-54.8-8.7c-3.8-14.2,8.7-26.2,20.5-31.5&#10;&#9;&#9;C190.4,837.6,225.2,867.2,198.7,889.4z" style="fill: rgb(170, 208, 58);"/>
	<path class="st0" d="M164.4,849.2c-11.8,5.3-24.3,17.3-20.5,31.5c6.9,25.9,37.9,22.9,54.8,8.7C225.2,867.2,190.4,837.6,164.4,849.2&#10;&#9;&#9;z" style="fill: rgb(150, 216, 232);"/>
	<path class="st10" d="M112.5,899.6c7.2-4.2,10-14.5,5.9-21.8c-2.1-3.7-5.9-6.3-10.1-7.3c-3.9-1-8.1-0.6-11.7,1.4&#10;&#9;&#9;c3.1-7.5,1.5-16.7-3.9-22.8c-5.4-6.1-14.3-8.8-22.1-6.7c-7.8,2.1-14.2,8.9-15.8,16.9c-10.7-6.8-26.5-3.6-33.6,6.9&#10;&#9;&#9;c-7.1,10.5-4.2,26.4,6.1,33.8c-6.3,4.1-8.9,12.8-6.6,20c2.3,7.2,9,12.6,16.4,14c7.4,1.4,15.3-0.8,21.4-5.3c1,5.7,4.8,10.7,9.8,13.7&#10;&#9;&#9;c2.3,1.4,5,2.3,7.7,2.5c0.3,0,0.7,0,1,0.1c8.2,0.4,16.3-4.9,19.3-12.5c6.2,1.2,12.9,0.4,18.2-3c2.4-1.5,4.5-3.6,6-6.1&#10;&#9;&#9;c1.8-2.9,2.9-6.3,2.8-9.7C123.1,907.3,118.7,901.2,112.5,899.6z M92.1,905.3c-12.6,10.6-35.7,12.9-40.9-6.5&#10;&#9;&#9;c-2.8-10.6,6.5-19.5,15.3-23.5C85.9,866.6,111.9,888.7,92.1,905.3z" style="fill: rgb(74, 185, 234);"/>
	<path class="st0" d="M66.5,875.3c-8.8,3.9-18.1,12.9-15.3,23.5c5.2,19.4,28.3,17.1,40.9,6.5C111.9,888.7,85.9,866.6,66.5,875.3z" style="fill: rgb(150, 216, 232);"/>
	<path class="st11" d="M262.3,939.1c3.2,3.1,7.4,5.3,11.8,5.7c8.5,0.8,17.2-4.5,20.3-12.4c6.2,1.2,12.9,0.4,18.2-3&#10;&#9;&#9;c5.3-3.4,9-9.5,8.8-15.8c-0.2-6.3-4.6-12.5-10.7-14c7.2-4.2,10-14.5,5.9-21.8c-4.1-7.3-14.5-10.1-21.8-6c3.1-7.5,1.5-16.7-3.9-22.8&#10;&#9;&#9;c-5.4-6.1-14.3-8.8-22.1-6.7c-7.8,2.1-14.2,8.9-15.8,16.9c-3.4-2.2-7.4-3.3-11.4-3.5c-8.5-0.4-17.4,3.4-22.2,10.5&#10;&#9;&#9;c-7.1,10.5-4.2,26.4,6.1,33.8c-6.3,4.1-8.9,12.8-6.6,20c0.7,2.3,1.9,4.4,3.4,6.2c3.2,4,8,6.8,13,7.8c7.2,1.4,14.8-0.7,20.8-4.9&#10;&#9;&#9;c0.2-0.1,0.4-0.2,0.5-0.4C257.4,932.7,259.5,936.3,262.3,939.1z M249.4,898.8c-2.8-10.6,6.5-19.5,15.3-23.5&#10;&#9;&#9;c19.4-8.7,45.4,13.4,25.6,30C277.7,915.8,254.6,918.1,249.4,898.8z" style="fill: rgb(105, 190, 92);"/>
	<path class="st0" d="M290.3,905.3c19.8-16.6-6.2-38.7-25.6-30c-8.8,3.9-18.1,12.9-15.3,23.5C254.6,918.1,277.7,915.8,290.3,905.3z" style="fill: rgb(150, 216, 232);"/>
	<path class="st5" d="M289,974.1c11.6-4.8,20.4-14.7,26.4-25.7c-11.5-1.4-23.3-2.2-34.6,0.6c-9.5,2.4-18.5,7.6-24.2,15.4&#10;&#9;&#9;c1.3-8.5,3.2-17,5.7-25.3c-2.9-2.8-4.9-6.5-5.6-10.5c-0.2,0.1-0.3,0.2-0.5,0.4c-5.6,16.5-9.1,33.6-10.4,50.9h9&#10;&#9;&#9;c0.2-3.1,0.5-6.2,0.9-9.2C264.9,977.8,278.2,978.6,289,974.1z" style="fill: rgb(0, 161, 75);"/>
</g>
</svg>