<?xml version="1.0" encoding="iso-8859-1"?>
<!-- Generator: Adobe Illustrator 19.0.0, SVG Export Plug-In . SVG Version: 6.00 Build 0)  -->
<svg version="1.1" id="Capa_1" xmlns="http://www.w3.org/2000/svg" xmlns:xlink="http://www.w3.org/1999/xlink" x="0px" y="0px"
	 viewBox="0 0 512 512" style="enable-background:new 0 0 512 512;" xml:space="preserve">
<path style="fill:#435B6C;" d="M372.267,318l17.067,10.667l3.2-12.8L380.8,308.4c-18.133-11.733-27.733-25.6-30.933-40.533
	l-11.733,1.067C340.267,287.067,349.867,304.133,372.267,318z"/>
<g>
	<path style="fill:#E8EAE9;" d="M24.533,3.333C11.733,1.2,0,11.867,0,24.667V346.8c0,10.667,7.467,19.2,18.133,21.333L170.667,388.4
		V22.533L24.533,3.333z"/>
	<path style="fill:#E8EAE9;" d="M493.867,20.4L341.333,0.133v364.8l146.133,19.2C500.267,386.267,512,375.6,512,362.8V41.733
		C512,31.067,504.533,21.467,493.867,20.4z"/>
</g>
<polygon style="fill:#F3F3F3;" points="170.667,22.533 170.667,388.4 341.333,364.933 341.333,0.133 "/>
<g>
	<polygon style="fill:#F6B64C;" points="32,36.4 32,337.2 170.667,356.4 170.667,54.533 	"/>
	<polygon style="fill:#F6B64C;" points="480,50.267 341.333,32.133 341.333,332.933 480,352.133 	"/>
</g>
<polygon style="fill:#FFD15D;" points="170.667,54.533 170.667,356.4 341.333,332.933 341.333,32.133 "/>
<g>
	<path style="fill:#CFD7E1;" d="M105.6,46l-34.133-4.267c11.733,33.067,42.667,98.133,99.2,136.533v-38.4
		C137.6,112.133,117.333,72.667,105.6,46z"/>
	<path style="fill:#CFD7E1;" d="M87.467,207.067c-18.133-16-37.333-28.8-55.467-37.333v11.733c16,8.533,32,19.2,49.067,34.133
		c18.133,16,40.533,24.533,65.067,27.733c8.533,1.067,17.067,1.067,25.6,1.067v-10.667
		C140.8,232.667,109.867,226.267,87.467,207.067z"/>
	<path style="fill:#CFD7E1;" d="M397.867,139.867l-3.2,16c-7.467,46.933-10.667,64-36.267,77.867
		c-5.333-7.467-10.667-13.867-17.067-20.267V260.4c17.067,23.467,30.933,50.133,39.467,77.867l33.067,4.267
		c-9.6-35.2-26.667-69.333-49.067-100.267c28.8-16,32-36.267,39.467-84.267l3.2-16c8.533-52.267,51.2-55.467,71.467-53.333V78
		C456.533,76.933,407.467,80.133,397.867,139.867z"/>
</g>
<path style="fill:#E8EAE9;" d="M280.533,176.133c-1.067-19.2-9.6-38.4-30.933-61.867C233.6,97.2,227.2,78,230.4,58.8
	c1.067-4.267,2.133-8.533,3.2-12.8l-11.733,1.067c-1.067,3.2-2.133,6.4-2.133,10.667c-4.267,22.4,3.2,44.8,21.333,64
	c17.067,18.133,25.6,34.133,27.733,49.067c-18.133-7.467-38.4-12.8-59.733-17.067c-13.867-2.133-26.667-7.467-38.4-14.933v38.4
	c8.533,3.2,18.133,6.4,28.8,8.533c17.067,3.2,34.133,7.467,49.067,12.8c-19.2,10.667-48,24.533-77.867,32V241.2
	c36.267-9.6,71.467-27.733,90.667-38.4c1.067,1.067,3.2,1.067,4.267,2.133c-4.267,14.933-12.8,32-22.4,53.333
	c-1.067,3.2-3.2,6.4-4.267,9.6C216.533,270,193.067,273.2,170.667,286v12.8c20.267-12.8,40.533-16,62.933-18.133
	c-5.333,10.667-9.6,21.333-14.933,33.067c-5.333,13.867-8.533,25.6-10.667,37.333L218.667,350c1.067-10.667,4.267-21.333,9.6-33.067
	c5.333-13.867,11.733-25.6,17.067-37.333c2.133,0,3.2,0,5.333,0c28.8-2.133,57.6-4.267,86.4-21.333l1.067-1.067
	c1.067,1.067,2.133,3.2,4.267,4.267v-48C323.2,199.6,302.933,186.8,280.533,176.133z M250.667,267.867L250.667,267.867
	c1.067-1.067,1.067-3.2,2.133-4.267c9.6-19.2,17.067-36.267,22.4-52.267c21.333,10.667,39.467,22.4,54.4,37.333
	C304,263.6,278.4,265.733,250.667,267.867z"/>
<path style="fill:#FFD15D;" d="M250.667,267.867c1.067-1.067,1.067-3.2,2.133-4.267c9.6-19.2,17.067-36.267,22.4-52.267
	c21.333,10.667,39.467,22.4,54.4,37.333C304,263.6,278.4,265.733,250.667,267.867L250.667,267.867z"/>
<g>
	<path style="fill:#F6B64C;" d="M408.533,143.067l-3.2,16c-7.467,48-10.667,68.267-40.533,84.267
		c22.4,30.933,38.4,64,49.067,100.267L480,352.133v-262.4C458.667,87.6,417.067,90.8,408.533,143.067z"/>
	<path style="fill:#F6B64C;" d="M71.467,41.733L32,36.4v132.267C50.133,178.267,68.267,190,87.467,206
		c22.4,19.2,53.333,25.6,83.2,25.6v-53.333C114.133,139.867,83.2,74.8,71.467,41.733z"/>
</g>
<path style="fill:#67C6B9;" d="M199.467,186.8c-10.667-2.133-20.267-4.267-28.8-8.533V231.6c29.867-8.533,58.667-22.4,77.867-32
	C233.6,194.267,216.533,190,199.467,186.8z"/>
<path style="fill:#CFD7E1;" d="M145.067,242.267C121.6,239.067,98.133,231.6,80,215.6c-16-14.933-32-26.667-48-35.2v156.8
	l138.667,18.133V298.8v-11.733v-43.733C162.133,243.333,153.6,243.333,145.067,242.267z"/>
<g>
	<path style="fill:#FFD15D;" d="M208,351.067c1.067-11.733,5.333-24.533,10.667-37.333c5.333-11.733,9.6-23.467,14.933-33.067
		c-21.333,2.133-42.667,6.4-62.933,18.133v57.6L208,351.067z"/>
	<path style="fill:#FFD15D;" d="M261.333,204.933c-19.2,10.667-54.4,28.8-90.667,38.4v43.733c22.4-12.8,44.8-16,68.267-18.133
		c1.067-3.2,3.2-6.4,4.267-9.6C252.8,239.067,261.333,222,265.6,206C264.533,206,262.4,206,261.333,204.933z"/>
</g>
<path style="fill:#67C6B9;" d="M233.6,47.067c-1.067,4.267-3.2,8.533-3.2,12.8c-3.2,19.2,3.2,38.4,19.2,56.533
	c21.333,22.4,29.867,42.667,30.933,61.867c22.4,9.6,43.733,22.4,60.8,37.333V32.133L233.6,47.067z"/>
<g>
	<path style="fill:#4ABAA5;" d="M341.333,32.133v181.333c6.4,6.4,11.733,13.867,17.067,20.267
		c25.6-13.867,28.8-30.933,36.267-77.867l3.2-17.067c9.6-59.733,58.667-62.933,82.133-60.8V50.267L341.333,32.133z"/>
	<path style="fill:#4ABAA5;" d="M341.333,260.4v72.533l39.467,5.333C372.267,310.533,358.4,284.933,341.333,260.4z"/>
</g>
<path style="fill:#67C6B9;" d="M337.067,256.133L336,257.2c-28.8,17.067-57.6,19.2-86.4,21.333c-2.133,0-3.2,0-5.333,0
	C238.933,290.267,233.6,302,227.2,315.867c-5.333,11.733-8.533,22.4-9.6,33.067l123.733-16V260.4
	C340.267,259.333,339.2,257.2,337.067,256.133z"/>
<path style="fill:#F6B64C;" d="M105.6,46c11.733,26.667,32,66.133,65.067,94.933V55.6L105.6,46z"/>
<path style="fill:#FFD15D;" d="M241.067,122.8c-18.133-20.267-25.6-41.6-21.333-64c0-3.2,1.067-7.467,2.133-10.667L233.6,46
	l-62.933,8.533v85.333c11.733,6.4,24.533,11.733,38.4,14.933c21.333,4.267,41.6,9.6,59.733,17.067
	C266.667,156.933,258.133,140.933,241.067,122.8z"/>
<rect x="352.083" y="355.85" transform="matrix(-0.7071 0.7071 -0.7071 -0.7071 924.0173 386.5592)" style="fill:#354B5E;" width="59.733" height="57.599"/>
<circle style="fill:#435B6C;" cx="274.133" cy="276.4" r="142.933"/>
<circle style="fill:#8BD7F8;" cx="274.133" cy="276.4" r="103.467"/>
<path style="fill:#57C0EC;" d="M377.6,270c-5.333,17.067-13.867,33.067-27.733,45.867c-42.667,42.667-112,42.667-153.6,0
	c-11.733-11.733-20.267-25.6-25.6-40.533c0,26.667,10.667,53.333,30.933,73.6c40.533,40.533,105.6,40.533,146.133,0
	C369.067,327.6,379.733,298.8,377.6,270z"/>
<path style="fill:#F3705B;" d="M498.133,432.133L448,382c-6.4-6.4-17.067-6.4-23.467,0l-42.667,42.667c-6.4,6.4-6.4,17.067,0,23.467
	L432,498.267c18.133,18.133,48,18.133,66.133,0C516.267,480.133,516.267,450.267,498.133,432.133z"/>
<path style="fill:#F15741;" d="M465.067,399.067L448,382c-6.4-6.4-17.067-6.4-23.467,0l-42.667,42.667c-6.4,6.4-6.4,17.067,0,23.467
	l17.067,17.067L465.067,399.067z"/>
<path style="fill:#F3705B;" d="M454.4,361.733c-6.4-6.4-17.067-6.4-23.467,0l-70.4,70.4c-6.4,6.4-6.4,17.067,0,23.467
	c6.4,6.4,17.067,6.4,23.467,0l70.4-70.4C461.867,378.8,461.867,368.133,454.4,361.733z"/>
<g>
</g>
<g>
</g>
<g>
</g>
<g>
</g>
<g>
</g>
<g>
</g>
<g>
</g>
<g>
</g>
<g>
</g>
<g>
</g>
<g>
</g>
<g>
</g>
<g>
</g>
<g>
</g>
<g>
</g>
</svg>
