<?xml version="1.0" encoding="iso-8859-1"?>
<!-- Generator: Adobe Illustrator 19.0.0, SVG Export Plug-In . SVG Version: 6.00 Build 0)  -->
<svg version="1.1" id="Layer_1" xmlns="http://www.w3.org/2000/svg" xmlns:xlink="http://www.w3.org/1999/xlink" x="0px" y="0px"
	 viewBox="0 0 512 512" style="enable-background:new 0 0 512 512;" xml:space="preserve">
<polygon style="fill:#FFCD71;" points="333.146,16.411 316.735,0 244.645,72.091 244.659,72.105 244.659,184.482 267.868,184.482 
	267.868,81.689 "/>
<polygon style="fill:#FFA187;" points="158.491,306.608 151.923,217.536 358.876,215.037 337.084,512 173.713,512 163.697,381.011 
	"/>
<polygon style="opacity:0.29;fill:#CD2A00;enable-background:new    ;" points="324.531,225.052 305.737,480.653 171.316,480.653 
	173.713,512 337.084,512 358.183,225.052 "/>
<g>
	<polygon style="fill:#FF6243;" points="166.209,174.033 148.394,174.033 137.843,225.052 374.157,225.052 363.607,174.033 
		222.435,174.033 	"/>
	<polygon style="fill:#FF6243;" points="345.562,400.525 165.564,400.525 156.994,285.02 353.681,285.02 	"/>
</g>
<g>
</g>
<g>
</g>
<g>
</g>
<g>
</g>
<g>
</g>
<g>
</g>
<g>
</g>
<g>
</g>
<g>
</g>
<g>
</g>
<g>
</g>
<g>
</g>
<g>
</g>
<g>
</g>
<g>
</g>
</svg>
