<?xml version="1.0" encoding="iso-8859-1"?>
<!-- Generator: Adobe Illustrator 19.0.0, SVG Export Plug-In . SVG Version: 6.00 Build 0)  -->
<svg version="1.1" id="Layer_1" xmlns="http://www.w3.org/2000/svg" xmlns:xlink="http://www.w3.org/1999/xlink" x="0px" y="0px"
	 viewBox="0 0 512 512" style="enable-background:new 0 0 512 512;" xml:space="preserve">
<polygon style="fill:#FF8081;" points="512,370.549 256,502.389 256,380.192 512,248.352 "/>
<polygon style="fill:#FFA6BB;" points="0,370.549 256,502.389 256,380.192 0,248.352 "/>
<polyline style="fill:#FCCFEF;" points="512,248.352 256,116.513 0,248.352 256,380.192 512,248.352 "/>
<path style="fill:#FFEDED;" d="M234.689,95.627c3.789,14.453,29.334,19.444,59.13,20.253v0.012
	c20.01,0.555,41.927-0.774,60.481-2.38c20.831-1.814,37.433,16.879,33.493,37.41c-11.75,61.094-63.404,119.912-63.404,119.912
	c-10.675,12.293-37.271,20.992-68.384,20.992c-31.125,0-57.72-8.7-68.395-20.992C131.264,163.121,120.6,95.245,122.264,56.161
	c1.074-24.978,21.246-44.931,46.236-45.832c80.376-2.877,127.756,2.172,127.756,28.479C296.256,68.8,226.012,62.48,234.689,95.627z"
	/>
<path style="fill:#E6D5D5;" d="M296.256,38.808c0,0,2.634,46.225-2.438,77.072c-29.796-0.809-55.34-5.8-59.13-20.253
	C226.012,62.48,296.256,68.8,296.256,38.808z"/>
<g>
</g>
<g>
</g>
<g>
</g>
<g>
</g>
<g>
</g>
<g>
</g>
<g>
</g>
<g>
</g>
<g>
</g>
<g>
</g>
<g>
</g>
<g>
</g>
<g>
</g>
<g>
</g>
<g>
</g>
</svg>
