<?xml version="1.0" encoding="iso-8859-1"?>
<!-- Generator: Adobe Illustrator 19.0.0, SVG Export Plug-In . SVG Version: 6.00 Build 0)  -->
<svg version="1.1" id="Capa_1" xmlns="http://www.w3.org/2000/svg" xmlns:xlink="http://www.w3.org/1999/xlink" x="0px" y="0px"
	 viewBox="0 0 512 512" style="enable-background:new 0 0 512 512;" xml:space="preserve">
<path style="fill:#828282;" d="M96.726,372.849L13.181,498.82c17.574,17.574,46.066,17.574,63.64,0l51.725-51.725L96.726,372.849z"
	/>
<g>
	<path style="fill:#A1A1A1;" d="M64.906,383.456L13.181,435.18c-17.574,17.574-17.574,46.066,0,63.639l104.757-104.757
		L64.906,383.456z"/>
	<polygon style="fill:#A1A1A1;" points="128.546,447.095 219.355,356.285 166.322,303.252 96.726,415.275 	"/>
</g>
<rect x="103.722" y="289.746" transform="matrix(-0.7071 -0.7071 0.7071 -0.7071 -34.8136 693.5013)" style="fill:#65EAFF;" width="45" height="128.429"/>
<path style="fill:#636363;" d="M446.099,65.901L247.226,185.225L127.902,384.099c87.868,87.868,230.33,87.868,318.198,0
	S533.967,153.769,446.099,65.901z"/>
<path style="fill:#A1A1A1;" d="M127.902,65.901c-87.868,87.868-87.868,230.33,0,318.198L446.099,65.901
	C358.231-21.967,215.77-21.967,127.902,65.901z"/>
<path style="fill:#434343;" d="M414.279,97.721l-165.849,88.71l-88.71,165.849c70.294,70.294,184.264,70.294,254.558,0
	S484.574,168.015,414.279,97.721z"/>
<path style="fill:#828282;" d="M159.721,97.721c-70.294,70.294-70.294,184.264,0,254.558L414.279,97.721
	C343.985,27.426,230.016,27.426,159.721,97.721z"/>
<path style="fill:#B2F5FF;" d="M393.066,118.934L254.86,192.859l-73.925,138.207c58.579,58.579,153.553,58.579,212.132,0
	S451.645,177.513,393.066,118.934z"/>
<path style="fill:#FFFFFF;" d="M180.935,118.934c-58.579,58.579-58.579,153.553,0,212.132l212.132-212.132
	C334.487,60.355,239.514,60.355,180.935,118.934z"/>
<g>
	<rect x="272" y="300" style="fill:#242424;" width="30" height="30"/>
	<path style="fill:#242424;" d="M324.5,187.5c0,11.375-5.088,22.011-13.961,29.182L272,247.838V270h30v-7.838l27.397-22.148
		C345.35,227.121,354.5,207.98,354.5,187.5c0-8.88-1.74-17.356-4.871-25.129H324.5V187.5z"/>
</g>
<path style="fill:#434343;" d="M287,120c-37.22,0-67.5,30.28-67.5,67.5h30c0-20.678,16.822-37.5,37.5-37.5s37.5,16.822,37.5,37.5
	l25.129-25.129C339.641,137.564,315.34,120,287,120z"/>
<g>
</g>
<g>
</g>
<g>
</g>
<g>
</g>
<g>
</g>
<g>
</g>
<g>
</g>
<g>
</g>
<g>
</g>
<g>
</g>
<g>
</g>
<g>
</g>
<g>
</g>
<g>
</g>
<g>
</g>
</svg>
